<svg width="150" height="50" viewBox="0 0 150 50" fill="none" xmlns="http://www.w3.org/2000/svg">
<path d="M100 0H150V50H100V0Z" fill="#09BF00"/>
<path d="M122.051 3.22501H127.288L141.031 40.232C141.708 42.094 142.384 43.332 143.061 43.9455C143.76 44.5375 144.691 44.834 145.855 44.834H146.553V47.5H130.779V44.834C131.275 44.7922 131.773 44.771 132.27 44.7705C133.286 44.7705 133.953 44.6645 134.27 44.453C134.884 44.051 135.191 43.543 135.191 42.9295C135.191 42.4855 134.894 41.3955 134.302 39.6605L131.382 31.0915H115.323L111.895 40.6765C111.535 41.671 111.355 42.3585 111.355 42.7395C111.355 43.1625 111.461 43.5325 111.673 43.85C111.909 44.1707 112.227 44.4226 112.593 44.58C112.974 44.728 113.587 44.8025 114.434 44.8025C115.005 44.8025 115.471 44.8125 115.83 44.834V47.5H102.595V44.834C103.823 44.834 104.701 44.7175 105.23 44.485C105.78 44.231 106.256 43.8395 106.658 43.3105C107.06 42.7605 107.589 41.618 108.245 39.883L122.051 3.22501ZM116.497 27.981H130.176L123.321 8.93801L116.497 27.981Z" fill="white"/>
<path d="M50 0H100V50H50V0Z" fill="#FF9400"/>
<path d="M57.42 3.22501H74.9075C80.2185 3.22501 83.879 3.56351 85.889 4.24051C88.407 5.04451 90.4805 6.42051 92.11 8.36651C93.7605 10.3135 94.5855 12.789 94.5855 15.7935C94.5855 18.3535 93.9615 20.565 92.713 22.4265C91.2105 24.6695 89.3805 26.267 87.222 27.219C85.085 28.15 81.7105 28.6155 77.0975 28.6155H69.0045V39.978C69.0045 41.6705 69.0995 42.739 69.29 43.1835C69.544 43.797 69.893 44.231 70.3375 44.485C70.7815 44.7175 71.681 44.834 73.035 44.834H74.5585V47.5H57.42V44.834H58.4675C59.927 44.834 60.9215 44.7175 61.4505 44.485C61.9795 44.231 62.3605 43.85 62.5935 43.3425C62.847 42.8135 62.974 41.8295 62.974 40.3905V10.1125C62.974 8.71601 62.8575 7.78501 62.625 7.31951C62.4135 6.83251 62.043 6.48351 61.514 6.27201C61.0065 6.03901 59.9905 5.92301 58.4675 5.92301H57.42V3.22501ZM69.0045 6.68501V25.2515H75.828C79.277 25.2515 81.689 24.9445 83.0645 24.3315C84.461 23.7175 85.614 22.6595 86.524 21.1575C87.434 19.634 87.8885 17.8565 87.8885 15.825C87.8885 13.6035 87.3595 11.752 86.302 10.271C85.244 8.76851 83.805 7.75301 81.9855 7.22401C80.716 6.86401 78.24 6.68451 74.5585 6.68451H69.0045V6.68501Z" fill="white"/>
<path d="M0 0H50V50H0V0Z" fill="#00D9C2"/>
<path d="M35.881 3.225H38.166L41.562 16.8725L38.642 17.7615C36.78 13.9315 34.3045 10.9165 31.2155 8.716C28.6765 6.875 25.862 5.9545 22.773 5.9545C20.911 5.9545 19.2395 6.293 17.758 6.97C16.277 7.626 15.1665 8.483 14.426 9.541C13.685 10.599 13.315 11.678 13.315 12.7785C13.315 13.773 13.6005 14.7355 14.172 15.6665C14.743 16.5975 15.6105 17.4225 16.7745 18.142C17.938 18.8405 19.8425 19.581 22.4875 20.364L30.771 22.8075C31.7865 23.104 33.257 23.675 35.1825 24.5215C37.1295 25.368 38.6425 26.267 39.721 27.219C40.8005 28.15 41.6465 29.3035 42.2605 30.679C42.874 32.033 43.1805 33.5035 43.1805 35.0905C43.1805 38.6025 41.636 41.6815 38.547 44.326C35.479 46.95 31.501 48.2615 26.6135 48.2615C24.0955 48.2615 21.842 47.902 19.8535 47.1825C17.864 46.4425 15.7165 45.141 13.41 43.279L11.95 47.5H9.72851L6.77701 31.599L9.72851 30.996C10.8075 33.937 12.236 36.434 14.0135 38.486C15.8115 40.539 17.79 42.094 19.9485 43.152C22.1275 44.1885 24.3385 44.707 26.5815 44.707C29.6285 44.707 32.2945 43.787 34.5795 41.946C36.484 40.401 37.436 38.5815 37.436 36.487C37.436 34.5615 36.7485 32.985 35.373 31.758C33.9765 30.5305 31.48 29.388 27.883 28.33L19.948 26.045C15.505 24.754 12.373 23.104 10.5535 21.0935C8.73401 19.0835 7.82401 16.7775 7.82401 14.175C7.82401 12.1435 8.41651 10.271 9.60151 8.557C10.7865 6.822 12.6065 5.3725 15.0605 4.209C17.515 3.045 20.202 2.4635 23.122 2.4635C25.5765 2.4635 27.925 2.8865 30.168 3.733C31.7598 4.32822 33.2404 5.18649 34.548 6.272L35.881 3.225Z" fill="white"/>
</svg>
