<svg width="161" height="161" viewBox="0 0 161 161" fill="none" xmlns="http://www.w3.org/2000/svg">
<path fill-rule="evenodd" clip-rule="evenodd" d="M55.0337 155.019L55.0964 155.028L55.1491 154.995C55.4082 154.789 55.7461 154.769 56.0308 154.622L56.0871 154.633L56.1345 154.602C56.2958 154.445 56.5391 154.479 56.7148 154.356L56.7083 154.363C56.9596 154.055 57.3727 154.119 57.6814 153.941C57.901 153.74 58.204 153.706 58.4494 153.557L58.4929 153.567L58.5274 153.538C58.9576 153.233 59.4566 153.071 59.934 152.864C60.0715 152.733 60.2378 152.662 60.4165 152.613C60.4909 152.557 60.5664 152.5 60.642 152.444C60.776 152.327 60.9617 152.307 61.1019 152.203L61.3492 152.066C61.53 151.955 61.7519 151.932 61.9214 151.796L61.9099 151.781C62.1009 151.636 62.2857 151.481 62.513 151.391C62.7169 151.423 62.8141 151.281 62.9145 151.145C63.0631 150.867 63.4314 150.934 63.609 150.701C63.7221 150.565 63.9005 150.53 64.0406 150.435C64.1973 150.243 64.3998 150.109 64.6438 150.037C64.6916 150.046 64.7228 150.027 64.7364 149.98C64.8645 149.836 65.0281 149.737 65.1802 149.624L65.1716 149.629C65.2723 149.471 65.457 149.441 65.6002 149.35C65.9465 149.093 66.2201 148.73 66.6302 148.541C66.8857 148.6 66.8567 148.311 67.0028 148.237C67.1612 148.07 67.3715 147.974 67.5497 147.834L67.5834 147.852C67.7678 147.718 67.9252 147.547 68.1429 147.459C68.2585 147.422 68.3279 147.355 68.2982 147.223C68.3858 146.963 68.698 146.952 68.8315 146.743L68.8391 146.736C69.1805 146.332 69.5574 145.966 69.9887 145.658C70.1872 145.392 70.416 145.152 70.7086 144.98L70.7021 144.985C70.7897 144.79 70.9421 144.661 71.1269 144.564L71.1236 144.568C71.3231 144.301 71.5289 144.042 71.8257 143.874C72.0636 143.786 72.1223 143.539 72.2731 143.375C72.3826 143.141 72.4995 142.911 72.7528 142.797C72.8289 142.708 72.905 142.619 72.981 142.53C73.0484 142.329 73.2186 142.218 73.3678 142.089C73.4117 142.076 73.4281 142.048 73.4162 142.003C73.5462 141.629 73.8978 141.433 74.1161 141.128C74.2472 140.934 74.3428 140.707 74.5685 140.587L74.8414 140.202C74.9019 140.028 75.0213 139.897 75.1617 139.784C75.3663 139.716 75.4033 139.547 75.4182 139.363C75.6158 139.087 75.7555 138.77 76.0067 138.533L75.997 138.54C76.3696 137.93 76.7739 137.339 77.1487 136.729L77.1346 136.747C77.3878 136.576 77.3323 136.215 77.5719 136.036L77.5663 136.047C77.653 135.9 77.7028 135.73 77.8443 135.619C78.0403 135.37 78.0685 135.033 78.2751 134.788C78.4658 134.536 78.4815 134.19 78.7176 133.962L78.7143 133.969C78.8513 133.804 78.8512 133.566 79.0073 133.41L79.004 133.417C79.1399 133.134 79.2051 132.816 79.4296 132.577C79.6228 132.003 79.8826 131.458 80.1507 130.918C80.179 130.884 80.185 130.847 80.1708 130.807C80.3203 130.478 80.3937 130.117 80.5949 129.81C80.6274 129.783 80.6343 129.752 80.6137 129.714C80.6929 129.508 80.7149 129.281 80.8333 129.089C80.9782 128.779 81.2278 128.509 81.1929 128.132C81.2042 128.033 81.2493 127.949 81.3092 127.871C81.3213 127.791 81.3334 127.709 81.3454 127.628C81.6035 127.239 81.4943 126.727 81.7756 126.347C81.8092 126.315 81.814 126.282 81.7892 126.243C81.9052 126.061 81.905 125.83 82.0369 125.654L82.2435 124.985C82.3128 124.614 82.3608 124.241 82.3908 123.864C82.4129 123.762 82.4539 123.667 82.5045 123.575C82.5276 123.534 82.5411 123.492 82.544 123.445C82.7311 123.158 82.6381 122.818 82.7126 122.51C82.8097 122.078 82.7549 121.616 82.975 121.208L83.0024 121.222C83.1457 120.765 83.1422 120.292 83.1494 119.822C83.1499 119.67 83.1748 119.527 83.2717 119.403C83.2897 119.046 83.3066 118.688 83.3245 118.33C83.5172 117.727 83.2665 117.082 83.5037 116.485L83.494 116.495C83.6359 115.324 83.5671 114.142 83.6856 112.969C83.7127 112.698 83.639 112.408 83.8327 112.167C83.8447 111.905 83.8567 111.645 83.8688 111.384C84.048 109.966 84.1953 108.542 84.607 107.165C84.6486 106.854 84.9035 106.586 84.7966 106.244C84.926 105.912 84.8391 105.521 85.0797 105.219C85.1132 105.19 85.118 105.157 85.0942 105.12C85.3277 104.676 85.197 104.114 85.5501 103.709L85.5404 103.714C85.6562 103.486 85.6239 103.203 85.8011 102.995L85.8327 103.014C85.9747 102.87 85.9588 102.683 85.9715 102.503C86.018 102.282 86.0866 102.072 86.2335 101.894C86.2476 101.818 86.2617 101.742 86.2747 101.665C86.3331 101.494 86.4136 101.336 86.5257 101.195L86.5595 101.21C86.7049 100.933 86.8217 100.647 86.8507 100.332C86.8705 100.234 86.9176 100.156 87.0037 100.103C87.2203 100.019 87.0916 99.827 87.1345 99.6886C87.2515 99.5121 87.2261 99.2621 87.4243 99.1274C87.5959 98.8755 87.8423 98.6663 87.8652 98.3331C87.9393 98.1772 88.0028 98.0158 88.12 97.885C88.161 97.8592 88.1722 97.8233 88.1539 97.7783C88.3681 97.3412 88.5612 96.8921 88.865 96.5044C88.8994 96.488 88.9062 96.4626 88.8844 96.4303C88.9485 96.1776 89.1409 96.0099 89.2902 95.8128L89.3007 95.8225C89.5298 95.4473 89.7789 95.0841 90.0154 94.7133C90.0424 94.6893 90.0483 94.6607 90.0328 94.6286C90.1611 94.4194 90.2588 94.1885 90.467 94.037L90.4604 94.0454C90.5593 93.8124 90.7253 93.6336 90.9301 93.4885C91.0121 93.3678 91.0951 93.2471 91.1782 93.1253C91.2912 92.8702 91.4599 92.6607 91.6989 92.5108L91.8485 92.3605C92.0287 92.2234 92.0478 91.9868 92.1816 91.8213C92.2197 91.7731 92.2641 91.7304 92.3148 91.6941L92.3083 91.7003C92.4918 91.4337 92.7058 91.1942 92.9679 91.0001C93.0142 90.9733 93.0308 90.9343 93.02 90.882C93.1565 90.6868 93.2542 90.4601 93.4778 90.3376L93.467 90.3481C93.5767 90.163 93.7219 90.0158 93.9163 89.9193C93.9969 89.8166 94.0765 89.7128 94.156 89.6091C94.3647 89.55 94.4294 89.3206 94.6098 89.2293C94.8553 89.0147 95.1395 88.838 95.2886 88.5315C95.4066 88.3572 95.5695 88.2347 95.7512 88.1359C95.8875 88.0129 96.0238 87.89 96.1601 87.7681C96.4216 87.4869 96.6675 87.1873 97.0447 87.0473C97.2156 86.8963 97.3865 86.7442 97.5573 86.5931C97.7935 86.3635 98.0223 86.1243 98.3075 85.9518C98.7058 85.7644 99.0678 85.5221 99.3986 85.2326C99.5291 85.0808 99.6834 84.9592 99.8566 84.8613L99.9087 84.8644L99.957 84.8418C100.14 84.7059 100.363 84.6195 100.486 84.4102C100.632 84.3065 100.817 84.2853 100.959 84.1741C101.144 84.0191 101.328 83.8566 101.569 83.7811C101.808 83.7959 101.918 83.5907 102.084 83.481C102.291 83.2923 102.568 83.2302 102.804 83.0941C103.081 82.9576 103.357 82.8212 103.634 82.6847C103.808 82.5741 104.012 82.5097 104.161 82.3593C104.349 82.2001 104.575 82.1094 104.801 82.022L104.856 82.0304L104.903 81.9983C105.295 81.8192 105.644 81.5364 106.094 81.4922C106.213 81.4358 106.332 81.3805 106.452 81.3242C106.699 81.1097 107.045 81.1168 107.311 80.9419C107.445 80.9421 107.578 80.9423 107.713 80.9425C108 80.7425 108.343 80.6571 108.651 80.5021C108.82 80.4179 108.995 80.3498 109.174 80.2892C109.251 80.2778 109.328 80.2664 109.405 80.255C109.609 80.0492 109.901 80.1181 110.14 80.0224C110.317 79.9692 110.492 79.917 110.668 79.8637C110.849 79.7161 111.102 79.7576 111.291 79.6313C111.364 79.6262 111.438 79.6211 111.511 79.615C112.003 79.3304 112.588 79.434 113.101 79.2412C113.226 79.2338 113.35 79.2253 113.474 79.2168C113.821 78.9924 114.24 79.1144 114.607 78.9806L114.598 78.9857C114.814 78.8068 115.099 79.0061 115.323 78.8549C115.545 78.8503 115.768 78.8446 115.99 78.8389C116.401 78.6305 116.87 78.7725 117.29 78.6215C117.419 78.6142 117.548 78.6079 117.677 78.6006C118.328 78.3836 119.007 78.4443 119.671 78.4484C121.386 78.4602 123.103 78.4423 124.815 78.606C125.294 78.8395 125.806 78.909 126.333 78.899C126.575 78.9011 126.815 78.9042 127.031 79.0344C127.251 79.0478 127.471 79.0612 127.69 79.0735C127.911 79.2271 128.207 79.0347 128.417 79.2328L128.406 79.2251C128.77 79.3674 129.197 79.2559 129.534 79.505C129.608 79.5137 129.684 79.5236 129.758 79.5323C130.269 79.7398 130.859 79.6545 131.347 79.953L131.33 79.9803C131.546 80.1275 131.799 80.0989 132.039 80.135C132.277 80.359 132.633 80.2186 132.883 80.4067C133.082 80.5685 133.383 80.4909 133.564 80.6927L133.613 80.7211L133.669 80.7115C134.047 80.8647 134.474 80.8912 134.804 81.1636L134.792 81.1538C134.986 81.2358 135.209 81.245 135.368 81.4039C135.402 81.43 135.44 81.4455 135.483 81.4505C135.63 81.5593 135.807 81.5953 135.976 81.6524C136.144 81.7212 136.35 81.7036 136.478 81.8662L136.513 81.8966L136.558 81.8835C136.696 81.9348 136.801 82.0418 136.934 82.1025C137.122 82.1897 137.259 82.3759 137.489 82.3756C137.665 82.4371 137.855 82.4606 138 82.5938C138.258 82.765 138.57 82.8448 138.833 83.0215L139.541 83.4492C139.912 83.6649 140.322 83.8197 140.629 84.1352L140.668 84.1816L140.729 84.1805C140.892 84.2556 141.067 84.3128 141.183 84.4635L141.215 84.4917L141.255 84.4765C141.475 84.594 141.703 84.6999 141.859 84.9076L141.851 84.899C142.065 85.0036 142.244 85.1565 142.425 85.3063C142.575 85.4034 142.725 85.5006 142.876 85.5977C142.951 85.683 143.041 85.7568 143.109 85.8504C143.235 86.0544 143.416 86.1669 143.659 86.1754C143.714 86.221 143.768 86.2655 143.823 86.3111C143.971 86.4252 144.101 86.557 144.217 86.7035C144.243 86.7454 144.281 86.7609 144.329 86.748C144.541 86.8611 144.729 87.0067 144.908 87.167C145.163 87.4104 145.42 87.6529 145.675 87.8963C146.017 88.0276 146.17 88.3585 146.417 88.5891C146.851 88.8951 147.191 89.2951 147.525 89.7025L147.536 89.7133C147.805 89.9081 148.005 90.1676 148.203 90.4292C148.374 90.5384 148.509 90.682 148.615 90.8527C148.871 91.0686 149.124 91.2844 149.287 91.5836L149.28 91.576C149.447 91.6618 149.453 91.8637 149.575 91.9816C149.735 92.1108 149.907 92.2243 149.968 92.4346L149.959 92.426C150.373 92.8644 150.724 93.3517 151.058 93.8515L151.049 93.8418C151.227 93.9139 151.224 94.1231 151.349 94.2347C151.498 94.4742 151.646 94.7126 151.795 94.9521C151.936 95.0915 152.065 95.2393 152.15 95.4214L152.211 95.6551C152.34 95.8018 152.516 95.9122 152.559 96.1221L152.577 96.3519C152.694 96.4772 152.79 96.6244 152.943 96.7163C153.079 96.8705 153.111 97.0825 153.24 97.2409C153.226 97.282 153.235 97.3173 153.268 97.3476C153.586 97.7143 153.801 98.1365 153.932 98.603C154.061 98.7221 154.079 98.9041 154.2 99.0198C154.253 99.1652 154.305 99.3106 154.359 99.4571C154.585 99.8912 154.878 100.294 154.988 100.783C154.966 100.817 154.973 100.843 155.009 100.862C155.253 101.156 155.243 101.547 155.395 101.877C155.402 102.002 155.408 102.129 155.413 102.255C155.589 102.475 155.524 102.798 155.738 103.001C155.919 103.495 155.823 104.046 156.049 104.531C156.058 104.661 156.066 104.792 156.076 104.922C156.285 105.259 156.162 105.668 156.312 106.016C156.467 106.43 156.384 106.867 156.441 107.29C156.63 107.549 156.545 107.88 156.669 108.157C156.666 108.202 156.678 108.243 156.706 108.278C156.982 108.86 156.817 109.528 157.072 110.115C157.078 110.248 157.085 110.382 157.092 110.515C157.156 110.609 157.196 110.712 157.199 110.827C157.14 111.501 157.378 112.129 157.506 112.774C157.545 113.252 157.594 113.727 157.691 114.197C157.695 114.321 157.699 114.444 157.703 114.567C157.776 114.661 157.821 114.766 157.827 114.885C157.796 115.419 157.894 115.943 157.943 116.471C157.954 116.91 157.872 117.358 158.044 117.785L158.084 117.772C158.325 118.365 158.162 119.005 158.3 119.611L158.29 119.601C158.541 120.045 158.456 120.538 158.485 121.011C158.527 121.718 158.595 122.423 158.653 123.13C158.657 123.347 158.661 123.565 158.663 123.783C158.741 123.885 158.782 124 158.783 124.128C158.745 125.562 158.904 126.987 158.974 128.416C158.98 128.917 158.986 129.42 158.993 129.921C159.223 130.818 158.987 131.737 159.125 132.64C159.151 132.817 159.091 133.005 159.175 133.18C159.142 134.916 159.106 136.652 159.079 138.39C159.075 138.722 159.1 139.052 158.667 139.142C158.322 139.414 157.947 139.636 157.532 139.788C157.331 139.986 157.041 140.027 156.813 140.185L156.821 140.177C156.424 140.466 155.964 140.637 155.532 140.86C155.488 140.845 155.451 140.856 155.423 140.895C155.282 141.001 155.121 141.068 154.956 141.125C154.688 141.265 154.421 141.405 154.154 141.546C153.956 141.751 153.672 141.801 153.439 141.945C153.011 142.247 152.511 142.411 152.03 142.617L152.036 142.615C151.823 142.815 151.539 142.881 151.289 143.012C151.253 142.993 151.222 142.999 151.194 143.027C151.043 143.208 150.806 143.195 150.612 143.282L150.619 143.274C150.406 143.552 150.033 143.507 149.774 143.69L149.779 143.687C149.547 143.927 149.215 143.961 148.931 144.096L148.936 144.094C148.794 144.281 148.53 144.218 148.369 144.366L148.373 144.364C148.119 144.569 147.782 144.596 147.51 144.766C147.467 144.747 147.426 144.752 147.39 144.784C147.122 144.951 146.829 145.065 146.532 145.169C146.486 145.158 146.444 145.166 146.406 145.195C146.276 145.304 146.113 145.351 145.969 145.435L145.978 145.429C145.84 145.568 145.646 145.576 145.475 145.636C145.307 145.69 145.127 145.711 144.984 145.83L145 145.85C144.931 145.914 144.851 145.958 144.757 145.971C144.442 145.978 144.192 146.156 143.923 146.285C143.769 146.375 143.588 146.404 143.44 146.509L143.446 146.507C143.15 146.722 142.774 146.742 142.46 146.915C142.415 146.922 142.37 146.93 142.324 146.938C142.194 147.045 142.031 147.093 141.886 147.174L141.897 147.169C141.584 147.386 141.2 147.418 140.861 147.567C140.831 147.544 140.8 147.542 140.767 147.563C140.461 147.763 140.087 147.793 139.768 147.962C139.467 147.881 139.319 148.162 139.088 148.249C138.919 148.422 138.67 148.391 138.47 148.485C138.296 148.529 138.099 148.491 137.954 148.634L137.969 148.665C137.766 148.841 137.474 148.77 137.259 148.915L137.26 148.915C136.973 149.178 136.583 149.174 136.245 149.306C136.202 149.283 136.165 149.291 136.136 149.33C135.852 149.588 135.445 149.523 135.134 149.708C135.089 149.688 135.048 149.694 135.011 149.726C134.806 149.902 134.519 149.844 134.298 149.972L134.302 149.968C133.991 150.28 133.529 150.178 133.175 150.372L133.18 150.37C132.968 150.576 132.671 150.531 132.422 150.626C132.255 150.679 132.087 150.732 131.92 150.785C131.749 150.945 131.489 150.883 131.312 151.026C131.276 151.004 131.244 151.008 131.217 151.04C130.994 151.235 130.701 151.199 130.443 151.279C130.193 151.331 129.908 151.252 129.705 151.478C129.514 151.618 129.273 151.602 129.064 151.685C128.875 151.859 128.619 151.764 128.409 151.85C128.265 151.958 128.087 151.994 127.934 152.08C127.903 152.054 127.874 152.057 127.847 152.087C127.446 152.326 126.958 152.28 126.546 152.48C126.418 152.493 126.29 152.506 126.161 152.519C125.533 152.857 124.822 152.927 124.154 153.134C124.074 153.141 123.994 153.148 123.915 153.155C123.554 153.376 123.11 153.33 122.742 153.525C122.618 153.536 122.495 153.548 122.372 153.56C121.634 153.857 120.86 154.019 120.085 154.179C120.005 154.185 119.925 154.192 119.845 154.198C119.638 154.345 119.401 154.374 119.157 154.382C118.82 154.416 118.476 154.411 118.158 154.556C118.113 154.565 118.07 154.577 118.029 154.591C117.813 154.761 117.516 154.675 117.294 154.821C117.251 154.81 117.213 154.819 117.18 154.847C116.637 155.093 116.026 155.027 115.472 155.218C115.431 155.194 115.392 155.196 115.357 155.228C115.002 155.471 114.571 155.349 114.191 155.47C113.954 155.669 113.651 155.53 113.394 155.625C113.281 155.716 113.15 155.741 113.01 155.738C112.708 155.728 112.409 155.733 112.123 155.846L112.137 155.878C111.636 156.148 111.034 155.966 110.533 156.238L109.894 156.262C109.548 156.416 109.172 156.397 108.81 156.448C108.446 156.61 108.017 156.46 107.666 156.683C107.33 156.807 106.963 156.762 106.624 156.871C106.545 156.873 106.466 156.877 106.387 156.88C105.875 157.118 105.311 157 104.783 157.123C104.384 157.174 103.966 157.009 103.582 157.227C103.537 157.242 103.492 157.257 103.447 157.271C102.95 157.507 102.401 157.356 101.89 157.487L101.9 157.478C101.069 157.794 100.18 157.649 99.3279 157.797C99.1955 157.82 99.0525 157.78 98.9245 157.852C98.7519 157.857 98.5793 157.863 98.4068 157.868C97.7689 158.12 97.083 157.948 96.4321 158.09L96.4429 158.081C96.0761 158.295 95.6578 158.041 95.2854 158.207C94.9265 158.212 94.5676 158.219 94.2098 158.224C93.6053 158.448 92.953 158.245 92.3439 158.433C92.0798 158.436 91.8146 158.439 91.5505 158.442C90.7852 158.67 89.996 158.566 89.2194 158.588C87.9783 158.625 86.735 158.608 85.4967 158.733C82.3588 158.68 79.2198 158.627 76.0819 158.573C75.2453 158.558 74.4098 158.541 73.5732 158.525C71.9515 158.287 70.3114 158.31 68.6826 158.175C68.4328 158.154 68.1689 158.208 67.9494 158.034C67.594 158.019 67.2397 158.003 66.8844 157.989C66.286 157.742 65.6176 157.975 65.0205 157.716L64.0751 157.654C62.97 157.523 61.8687 157.365 60.7556 157.33C60.6345 157.313 60.5235 157.267 60.4203 157.202C60.2044 157.19 59.9884 157.179 59.7714 157.169C58.9338 157.028 58.0888 156.943 57.2427 156.862C57.0365 156.842 56.8244 156.854 56.6633 156.69L56.6717 156.7C56.1655 156.539 55.6086 156.664 55.1166 156.425L55.1322 156.386C54.9827 156.291 54.8184 156.25 54.6415 156.255C54.4571 156.268 54.2882 156.188 54.1085 156.174C54.0458 156.164 53.9865 156.147 53.9305 156.12C53.5676 155.928 53.7114 155.743 53.933 155.552C54.1093 155.398 54.3882 155.46 54.5366 155.255C54.6753 155.119 54.8806 155.125 55.0337 155.019L79.0073 91.0001Z" fill="url(#paint0_linear)"/>
<path fill-rule="evenodd" clip-rule="evenodd" d="M61.4176 84.1727C61.5575 84.2708 61.6963 84.3677 61.8362 84.4658C62.0114 84.6186 62.2192 84.7285 62.3834 84.8949C62.4337 84.9414 62.484 84.988 62.5354 85.0346C62.646 85.1608 62.8363 85.179 62.9306 85.3272L62.9285 85.324C63.0981 85.4884 63.3026 85.6088 63.4864 85.7543C63.6568 86.1132 64.0436 86.2197 64.3152 86.4603C64.4425 86.6038 64.6165 86.7014 64.7233 86.8657C65.1074 87.189 65.538 87.462 65.8352 87.8804C65.9572 88.0281 66.1323 88.1246 66.2348 88.29C66.3278 88.3893 66.4208 88.4897 66.5139 88.5891C66.6835 88.6929 66.7762 88.8719 66.9208 88.9998C67.471 89.4449 67.82 90.066 68.3031 90.5716C68.4271 90.7235 68.5717 90.8556 68.7022 91.0024C68.7419 91.0477 68.7805 91.094 68.8202 91.1393C68.8233 91.3858 69.0214 91.504 69.1624 91.6605C69.3784 91.9138 69.6321 92.1371 69.7823 92.4414C69.8984 92.6803 70.2008 92.8024 70.2039 93.1126C70.3403 93.2265 70.3368 93.424 70.4635 93.5452L70.4829 93.5328C70.6244 93.7201 70.7606 93.9126 70.8773 94.1175C70.9707 94.253 71.0653 94.3885 71.1587 94.524C71.2797 94.7311 71.4372 94.9155 71.5485 95.1288C71.5652 95.2088 71.5808 95.2876 71.5975 95.3676C71.8766 95.6635 72.075 96.009 72.2293 96.3824C72.2781 96.5129 72.3269 96.6433 72.3768 96.7738C72.4745 96.9114 72.5141 97.0831 72.629 97.2105L72.6441 97.198C72.7688 97.556 73.0995 97.821 73.1137 98.2291C73.1381 98.4165 73.215 98.5846 73.3048 98.7487L73.3348 98.7365C73.4487 98.8595 73.4765 99.0353 73.5893 99.1605C73.729 99.2713 73.6984 99.4386 73.7288 99.5857C73.8943 99.7383 73.8377 99.9923 73.9883 100.151L73.9872 100.149C74.2048 100.497 74.2305 100.913 74.3848 101.283C74.3766 101.327 74.3822 101.369 74.3996 101.41C74.5717 101.556 74.5387 101.797 74.6571 101.967C74.7392 102.202 74.8203 102.436 74.9014 102.67C74.927 102.91 74.9344 103.155 75.0402 103.379L75.0552 103.371C75.3126 103.755 75.2113 104.248 75.4472 104.639C75.452 104.731 75.4578 104.824 75.4626 104.916C75.7925 105.781 75.8989 106.696 76.0876 107.591C76.0928 107.724 76.0968 107.857 76.102 107.99C76.4245 108.662 76.1587 109.434 76.4621 110.108C76.4671 110.428 76.4722 110.748 76.4772 111.068C76.6846 111.507 76.608 111.988 76.6108 112.436C76.6248 114.376 76.6143 116.318 76.4526 118.254C76.4431 118.372 76.3912 118.476 76.3425 118.582L76.3016 119.403C76.0003 120.071 76.2018 120.843 75.8666 121.504C75.8568 121.638 75.8481 121.77 75.8383 121.904C75.6213 122.747 75.5186 123.622 75.132 124.419C75.118 124.552 75.1039 124.686 75.0899 124.82C74.8181 125.198 74.902 125.699 74.6504 126.084C74.6338 126.119 74.631 126.155 74.641 126.193C74.527 126.323 74.5035 126.506 74.3884 126.635C74.3773 126.725 74.3672 126.815 74.3571 126.904C74.1751 127.262 74.1084 127.666 73.9127 128.02L73.9171 128.013C73.699 128.306 73.742 128.71 73.4912 128.989C73.4724 129.027 73.4675 129.067 73.4753 129.107C73.3865 129.253 73.3324 129.42 73.211 129.548L73.1824 129.536C73.0707 129.777 72.9378 130.009 72.8947 130.278C72.8782 130.371 72.8311 130.446 72.764 130.51C72.7453 130.542 72.7394 130.577 72.7462 130.615C72.5572 130.827 72.5422 131.139 72.33 131.339C72.3158 131.599 72.0017 131.721 72.0246 131.998C71.8867 132.152 71.8509 132.368 71.7025 132.516C71.4824 132.618 71.4606 132.828 71.4262 133.032C71.3578 133.169 71.2915 133.308 71.1652 133.405L71.1684 133.402C71.065 133.535 71.0257 133.71 70.8928 133.822C70.8731 133.855 70.8661 133.89 70.8718 133.926C70.729 134.118 70.6271 134.339 70.457 134.512C70.4144 134.693 70.335 134.851 70.1682 134.953C69.9074 135.374 69.553 135.73 69.3101 136.165C69.1674 136.349 69.0236 136.533 68.8809 136.718C68.7596 136.835 68.7423 137.032 68.5758 137.114L68.5812 137.109C68.4604 137.262 68.3532 137.427 68.1872 137.539C68.0827 137.67 67.9782 137.801 67.8737 137.932C67.631 138.292 67.2856 138.563 67.0303 138.912C66.6971 139.277 66.3638 139.642 66.0295 140.007C65.8416 140.097 65.7467 140.289 65.5859 140.409L65.5956 140.404C65.4359 140.527 65.2772 140.65 65.1771 140.831C65.0829 140.922 64.9876 141.013 64.8924 141.102C64.7012 141.196 64.5841 141.375 64.4211 141.502C64.1985 141.692 63.9769 141.881 63.7553 142.071C63.4982 142.221 63.3088 142.46 63.0486 142.605C62.8993 142.74 62.8116 142.945 62.5944 143.005C62.3686 143.189 62.1429 143.375 61.916 143.56C61.7252 143.697 61.5333 143.832 61.3383 143.963L61.3458 143.96C61.1601 144.107 60.9525 144.225 60.7658 144.371C60.63 144.464 60.4953 144.557 60.3595 144.649C60.1737 144.861 59.8741 144.886 59.6666 145.062L59.659 145.068C59.4671 145.204 59.2773 145.342 59.073 145.458C58.8856 145.58 58.6982 145.702 58.5108 145.825C58.374 146.034 58.1116 146.003 57.9316 146.13C57.6772 146.308 57.428 146.493 57.1128 146.553C56.9956 146.68 56.8173 146.708 56.6877 146.815L56.6887 146.815C56.4716 146.993 56.1781 147.034 55.962 147.213C55.9206 147.207 55.8811 147.213 55.8435 147.23C55.5323 147.372 55.2796 147.633 54.9262 147.689C54.7509 147.73 54.5705 147.758 54.4195 147.868L54.4351 147.889C54.2319 148.059 53.9483 148.023 53.7319 148.158C53.624 148.298 53.4501 148.259 53.3097 148.311C53.1515 148.469 52.9207 148.454 52.737 148.552L52.7434 148.546C52.4619 148.816 52.0477 148.753 51.7366 148.95C51.6523 148.958 51.567 148.967 51.4817 148.975C51.2885 149.185 50.994 149.101 50.7683 149.217C50.5843 149.268 50.4013 149.32 50.2184 149.371C50.0519 149.515 49.8098 149.479 49.6402 149.614C49.5967 149.605 49.5551 149.608 49.5144 149.624C49.0723 149.88 48.5404 149.793 48.0864 150.001C48.0022 150.005 47.917 150.009 47.8317 150.013C47.4937 150.286 47.0611 150.123 46.6935 150.26C46.3471 150.464 45.9523 150.329 45.5898 150.415C45.371 150.567 45.0928 150.526 44.8629 150.642C44.684 150.645 44.505 150.649 44.3261 150.652C43.6292 150.928 42.8864 150.783 42.1703 150.881C41.9013 150.918 41.6278 150.91 41.3675 151.001C39.6144 150.97 37.8603 150.94 36.1062 150.908C35.1467 150.609 34.1118 150.792 33.1574 150.453C31.6276 150.075 30.0968 149.694 28.5648 149.319C28.3888 149.277 28.2048 149.264 28.0243 149.238C27.8241 149.054 27.5092 149.16 27.3147 148.961C27.1603 148.837 26.9936 148.753 26.7874 148.793C26.5596 148.667 26.266 148.714 26.065 148.517C26.0259 148.499 25.9845 148.495 25.9417 148.505C25.3658 148.315 24.771 148.172 24.2618 147.819C24.1312 147.802 24.0016 147.785 23.8709 147.768C23.5957 147.49 23.1562 147.599 22.8721 147.344C22.8363 147.326 22.7991 147.321 22.7595 147.33C22.441 147.157 22.0415 147.169 21.7652 146.899L21.7673 146.901C21.5569 146.755 21.2652 146.813 21.0693 146.627C21.0303 146.607 20.9889 146.6 20.9451 146.605C20.6531 146.38 20.2757 146.347 19.9593 146.176C19.752 146.031 19.5714 145.826 19.2766 145.882C18.9958 145.745 18.6819 145.673 18.4353 145.467C18.3973 145.444 18.357 145.437 18.3132 145.444C17.9901 145.289 17.6005 145.286 17.3251 145.019C17.2904 144.997 17.2532 144.992 17.2136 145.002C17.0617 144.921 16.8955 144.865 16.771 144.739C16.732 144.72 16.6895 144.714 16.6457 144.719C16.3617 144.584 16.0435 144.516 15.8013 144.297C15.7634 144.277 15.723 144.272 15.6813 144.282C15.4992 144.164 15.2903 144.114 15.0903 144.041C14.9013 143.832 14.6302 143.745 14.4072 143.588C14.2839 143.576 14.1617 143.562 14.0395 143.549C13.819 143.371 13.5118 143.345 13.3067 143.139C13.272 143.116 13.2348 143.11 13.1952 143.12C13.0433 143.04 12.8772 142.983 12.7527 142.856C12.6282 142.788 12.5326 142.654 12.3638 142.688C12.2161 142.608 12.0553 142.551 11.9219 142.445C11.837 142.429 11.7532 142.414 11.6683 142.399C11.412 142.199 11.0774 142.153 10.8155 141.966L10.8219 141.969C10.6863 141.87 10.5145 141.827 10.3986 141.699C10.3638 141.677 10.3267 141.669 10.2872 141.676C9.98677 141.563 9.69077 141.441 9.43117 141.248L9.43433 141.25C9.18547 141.051 8.81443 141.08 8.60409 140.81L8.60827 140.814C8.47045 140.719 8.30411 140.673 8.18272 140.552C8.14478 140.529 8.1034 140.52 8.05855 140.528C7.77566 140.387 7.4465 140.336 7.21761 140.091L7.2218 140.095C6.96537 139.903 6.58921 139.92 6.39535 139.621C6.21475 139.537 6.03412 139.454 5.85353 139.37C5.65764 139.247 5.43119 139.166 5.27796 138.979C4.93254 138.882 4.71612 138.533 4.33756 138.506C4.18453 138.429 4.02161 138.368 3.89276 138.248C3.85693 138.226 3.81876 138.217 3.7772 138.22C3.56536 138.034 3.27345 137.984 3.06273 137.795L3.06591 137.796C2.91214 137.639 2.64212 137.676 2.52012 137.468L2.38675 137.363C2.19783 137.267 1.97369 137.238 1.8201 137.07L1.82643 137.074C1.66387 136.933 1.41878 136.943 1.27056 136.774L1.28111 136.779C1.10599 136.625 0.887224 136.532 0.712109 136.379C0.674063 136.362 0.632688 136.354 0.591138 136.355C0.344949 136.247 0.371109 136.029 0.37475 135.821C0.422992 133.186 0.445714 130.549 0.584408 127.916C0.592631 127.75 0.633642 127.597 0.705431 127.449C0.728149 126.759 0.750885 126.068 0.773611 125.378C1.0645 124.27 0.954675 123.123 1.10102 122C1.13061 121.769 1.14953 121.54 1.24381 121.324C1.25497 121.051 1.26611 120.78 1.27727 120.507C1.48952 120.06 1.31762 119.54 1.54577 119.097C1.56387 118.731 1.58197 118.366 1.60005 118.002C1.7801 117.692 1.55666 117.317 1.75902 117.01L1.75466 117.016C1.93748 116.425 1.78373 115.78 2.05255 115.204C2.06099 115.025 2.06945 114.846 2.0779 114.668C2.3308 113.845 2.21642 112.958 2.5192 112.144C2.53159 111.922 2.54399 111.701 2.55639 111.479C2.75356 111.224 2.6171 110.869 2.81849 110.617C2.83201 110.392 2.84553 110.167 2.8601 109.943C3.01931 109.728 2.82956 109.437 3.01528 109.227L3.00983 109.235C3.15773 108.875 3.05012 108.454 3.28601 108.116C3.29763 107.938 3.30926 107.76 3.32091 107.582C3.54818 106.945 3.47323 106.239 3.77476 105.618L3.77043 105.623C3.91936 105.265 3.81809 104.846 4.04019 104.505C4.05216 104.369 4.06307 104.232 4.07398 104.095C4.34807 103.522 4.22881 102.853 4.51986 102.283C4.52558 102.2 4.5313 102.117 4.53703 102.033C4.70257 101.821 4.62159 101.52 4.79877 101.313C4.80903 101.03 5.03674 100.795 4.97912 100.498C5.12494 100.135 5.02268 99.7128 5.25121 99.3694C5.26309 99.2379 5.27498 99.1064 5.28686 98.9749C5.57752 98.5497 5.4477 97.9972 5.7193 97.5664C5.72504 97.4816 5.73076 97.3977 5.73755 97.3139C5.86306 97.1387 5.85017 96.9016 5.99471 96.7342C6.02588 96.4129 6.26183 96.1334 6.18371 95.791C6.29107 95.5571 6.22601 95.2596 6.45187 95.0691C6.47065 95.0301 6.47991 94.9878 6.48067 94.9443C6.59388 94.6201 6.71345 94.2972 6.69832 93.9453C6.83848 93.4804 7.03896 93.0366 7.1844 92.5739C7.19675 92.2937 7.42861 92.0651 7.37096 91.7699C7.49527 91.5415 7.4535 91.2508 7.64445 91.048C7.65228 90.9653 7.66013 90.8816 7.66799 90.7978C7.89742 90.4034 7.8115 89.8984 8.11078 89.5276L8.10537 89.5328C8.23905 89.3163 8.19713 89.0341 8.36679 88.831C8.38071 88.7048 8.39571 88.5776 8.40963 88.4515C8.67649 88.1693 8.55328 87.7263 8.82543 87.4464C8.84207 87.4084 8.85339 87.3693 8.85836 87.329C8.96718 87.195 8.98426 87.0094 9.10994 86.8852C9.16605 86.6599 9.22216 86.4357 9.27827 86.2104C9.39925 85.9894 9.33299 85.6993 9.53441 85.5063L9.58274 85.1173C9.86009 84.8438 9.72734 84.3986 10.0005 84.1229C10.0182 84.0828 10.0232 84.0404 10.0165 83.9968C10.1589 83.8325 10.128 83.5866 10.2852 83.4289C10.2913 83.3833 10.2975 83.3367 10.3036 83.2911C10.4379 82.9174 10.514 82.5204 10.7403 82.1823C10.7612 82.1466 10.765 82.1095 10.754 82.07C10.9711 81.771 10.8923 81.3447 11.1845 81.0779L11.1823 81.08C11.3287 80.869 11.2741 80.5802 11.4533 80.3826C11.5128 80.2073 11.5712 80.0309 11.6307 79.8556C11.7246 79.6639 11.7212 79.428 11.8996 79.276C11.9215 79.2382 11.9275 79.199 11.9198 79.1564C12.0756 78.833 12.0697 78.4388 12.3523 78.1707L12.3501 78.1728C12.4838 77.9573 12.4715 77.6831 12.6306 77.4787C12.6504 77.4398 12.6565 77.3984 12.6487 77.3558C12.8974 77.0733 12.8535 76.6615 13.0833 76.3702L13.0811 76.3744C13.235 76.2188 13.1894 75.9641 13.3592 75.8162C13.4337 75.6943 13.5558 75.5934 13.5236 75.4261C13.6533 75.2509 13.6363 75.0095 13.784 74.8411L13.8136 74.8554C13.9682 74.721 13.9344 74.5218 13.9842 74.3517C14.074 74.1493 14.0983 73.9192 14.2472 73.7433L14.245 73.7465C14.3979 73.5909 14.3523 73.3351 14.5242 73.1884C14.5997 73.0686 14.7218 72.9677 14.6885 72.8014C14.7679 72.6487 14.8314 72.4863 14.9423 72.3522L14.973 72.3644C15.1252 72.1865 15.0972 71.9587 15.1413 71.7502C15.2051 71.5718 15.2447 71.3792 15.4161 71.2611L15.4107 71.2641C15.5404 71.0943 15.5539 70.8683 15.6878 70.7007C15.7054 70.667 15.7114 70.6299 15.7057 70.5916C15.8946 70.3824 15.9159 70.0779 16.1112 69.871C16.1941 69.7556 16.3109 69.6546 16.285 69.4895C16.4431 69.0971 16.6085 68.708 16.8405 68.3509C16.8624 68.3183 16.8704 68.2824 16.8647 68.244C17.0472 67.9774 17.0946 67.6436 17.2939 67.3847L17.2906 67.39C17.3941 67.2579 17.4334 67.0833 17.5663 66.9699C17.6408 66.8511 17.7607 66.7512 17.7327 66.5882C17.8079 66.4302 17.8693 66.2634 18.0025 66.1393L18.0046 66.1373C18.1619 65.9095 18.129 65.5998 18.3286 65.3898C18.4526 65.2995 18.5861 65.2169 18.5903 65.0374C18.5337 64.7464 18.9386 64.6632 18.8883 64.3755C18.9677 64.2197 19.025 64.0507 19.1612 63.9309L19.1623 63.9299C19.315 63.7244 19.2648 63.4271 19.4724 63.247L19.4626 63.2564C19.6842 63.1296 19.7038 62.8601 19.8633 62.6887C19.8832 62.6486 19.8914 62.6052 19.889 62.5595C20.0715 62.3524 20.1191 62.0653 20.3048 61.8604C20.3266 61.8268 20.3347 61.7897 20.3291 61.7493C20.4927 61.5237 20.5436 61.2314 20.76 61.0376L20.7567 61.0408C20.8549 60.9065 20.8993 60.7384 21.0207 60.6183C21.0338 60.541 21.0458 60.4637 21.0588 60.3864C21.1722 60.1716 21.3393 59.994 21.4696 59.7902C21.7061 59.4182 21.9426 59.0463 22.1791 58.6744C22.3519 58.534 22.3327 58.2904 22.4728 58.1335C22.7658 57.6362 23.0577 57.1388 23.3507 56.6415C23.579 56.3141 23.6451 55.8786 24.0217 55.6536C24.0381 55.571 24.0533 55.4895 24.0697 55.408C24.3305 55.1672 24.3484 54.7532 24.6765 54.5603C24.9064 54.1999 25.1363 53.8407 25.3672 53.4814C25.4986 53.1544 25.6783 52.8612 25.9465 52.6279C26.0676 52.579 26.0864 52.4795 26.0799 52.3657C26.2785 51.9645 26.5383 51.6025 26.8128 51.2504C27.188 50.9807 27.2821 50.5298 27.5174 50.1696C27.7163 49.814 27.9383 49.4758 28.2151 49.1758C28.2338 49.1432 28.2418 49.1083 28.2372 49.071C28.3854 48.875 28.4937 48.6474 28.7018 48.5002C28.785 48.3689 28.8693 48.2386 28.9525 48.1083C29.0125 47.9033 29.1858 47.7959 29.3297 47.6624C29.3471 47.5841 29.3644 47.5058 29.3818 47.4275C29.5217 47.2823 29.6668 47.1425 29.7773 46.9734C29.9323 46.7541 30.0863 46.5347 30.2402 46.3154C30.3239 46.1607 30.3706 45.9831 30.53 45.8796L30.5246 45.8848C30.6544 45.7671 30.6875 45.5817 30.8184 45.4651L30.8086 45.4734C31.0344 45.3488 31.0577 45.0528 31.274 44.9196C31.3099 44.8766 31.3447 44.8347 31.3806 44.7918C31.4747 44.6479 31.5162 44.4681 31.6692 44.3635L31.6648 44.3676C31.8517 44.2158 31.8442 43.9129 32.0983 43.8143L32.095 43.8174C32.2028 43.6834 32.2244 43.484 32.4078 43.4076C32.8059 42.9259 33.2366 42.4681 33.5286 41.9081C33.638 41.739 33.7726 41.5926 33.9261 41.4625L33.9369 41.4499C34.0771 41.3514 34.088 41.153 34.2355 41.0589L34.2333 41.061C34.3877 40.881 34.4811 40.651 34.6911 40.5187C34.7312 40.478 34.7713 40.4362 34.8114 40.3955C34.9746 40.1359 35.1273 39.8688 35.3881 39.6885C35.6282 39.5355 35.6494 39.2373 35.82 39.0385C35.9224 38.848 36.0896 38.7213 36.2527 38.5914C36.3444 38.4613 36.4361 38.3301 36.5279 38.1989C36.7074 37.9184 36.933 37.6823 37.2015 37.4851C37.2297 37.458 37.242 37.4253 37.2395 37.387C37.3501 37.2689 37.5051 37.1133 37.6371 37.2399C37.8853 37.4768 37.8066 37.774 37.6602 38.0497L37.6067 39.2799C37.4247 39.64 37.6516 40.0583 37.4474 40.4148L37.4517 40.4096C37.3049 42.1077 37.2112 43.8077 37.2538 45.5134C37.2814 46.6122 37.2536 47.7143 37.439 48.8032C37.4438 49.0741 37.4487 49.3451 37.4535 49.6161C37.6923 49.9665 37.4417 50.4136 37.6826 50.763C37.6856 50.8937 37.6897 51.0244 37.6928 51.1541C37.9604 51.7398 37.7483 52.4223 38.063 52.9982C38.0705 53.1768 38.0781 53.3554 38.0845 53.534C38.3241 54.3242 38.5401 55.1204 38.7134 55.9286C38.702 55.9688 38.7035 56.0091 38.7188 56.0476C38.8042 56.1575 38.8349 56.2855 38.8464 56.4206C38.8293 56.7889 38.9801 57.1176 39.0902 57.4563L39.1245 57.4452C39.3233 58.069 39.5553 58.6817 39.7681 59.3015C39.7773 59.3845 39.7854 59.4686 39.7946 59.5516C39.9839 59.8088 40.0508 60.1201 40.1757 60.4059C40.2665 60.6359 40.3583 60.8659 40.4501 61.0958C40.6844 61.3357 40.6686 61.6892 40.8449 61.9557C40.8573 62.043 40.8685 62.1314 40.8808 62.2187C40.9818 62.349 41.0172 62.5142 41.115 62.6466L41.1129 62.6434C41.3623 62.8772 41.3411 63.2358 41.5142 63.5044C41.507 63.5478 41.5149 63.5873 41.5387 63.6249C41.786 63.7927 41.7085 64.1419 41.9278 64.3253C41.9355 64.3732 41.9432 64.4201 41.9509 64.468C42.2195 64.8169 42.4193 65.2028 42.5965 65.6031L42.5923 65.5999C42.8072 65.7906 42.8253 66.0947 43.0048 66.306L43.0006 66.3027C43.1488 66.4094 43.1787 66.5905 43.2752 66.7303L43.2711 66.7239C43.5461 67.1939 43.8071 67.6722 44.0896 68.1381L44.0843 68.1349C44.236 68.2278 44.2454 68.4213 44.3691 68.535C44.6898 69.0111 45.0104 69.4883 45.3321 69.9645C45.4755 70.2315 45.7137 70.4301 45.8559 70.6981C45.9484 70.8293 46.0419 70.9595 46.1344 71.0907C46.2998 71.2539 46.394 71.4702 46.5486 71.6407C46.7752 71.7732 46.8259 72.0364 46.9824 72.2208C47.2213 72.4406 47.4516 72.6666 47.644 72.9281C47.8873 73.2021 48.0107 73.5729 48.3382 73.7772C48.4602 73.927 48.5529 74.1071 48.7387 74.1963C48.9656 74.435 49.1935 74.6727 49.4215 74.9114C49.6938 75.2901 50.0376 75.602 50.3792 75.916L50.374 75.9085C50.4807 76.0803 50.6448 76.1936 50.798 76.3195C51.0738 76.5601 51.3497 76.7997 51.6255 77.0403C51.755 77.1838 51.93 77.2825 52.0357 77.4511C52.3018 77.6969 52.568 77.9416 52.8341 78.1863C53.0462 78.2951 53.2288 78.447 53.4126 78.5957C53.5385 78.6978 53.6656 78.8009 53.7916 78.9029C54.1602 79.1335 54.444 79.4656 54.7898 79.7234C54.9582 79.8304 55.1278 79.9364 55.2963 80.0434C55.4177 80.1624 55.562 80.2541 55.691 80.3637C55.7853 80.5151 55.8991 80.6414 56.087 80.6733C56.4129 80.6684 56.5326 80.9477 56.7211 81.1305C56.8006 81.1499 56.8801 81.1704 56.9585 81.1899C57.166 81.3188 57.3648 81.4593 57.5461 81.6229C57.6819 81.7134 57.8166 81.8039 57.9524 81.8944C58.2246 81.9767 58.4409 82.1483 58.6539 82.3273L58.6486 82.324C58.9705 82.5516 59.4201 82.5956 59.6218 82.9953C59.9826 83.0005 60.1493 83.3296 60.4257 83.4756C60.6378 83.5887 60.828 83.7323 61.0008 83.8978L60.9997 83.8957C61.1277 84.0041 61.3049 84.0401 61.4176 84.1727Z" fill="url(#paint1_linear)"/>
<path fill-rule="evenodd" clip-rule="evenodd" d="M109.304 21.0468C109.833 21.4044 110.199 21.9377 110.697 22.3266C111.426 23.034 112.155 23.7404 112.885 24.4478C113.028 24.5905 113.183 24.7217 113.287 24.8999L113.279 24.8923C113.545 25.0966 113.812 25.301 113.975 25.6055L113.969 25.599C114.136 25.7156 114.274 25.8614 114.388 26.0301L114.381 26.0226C114.682 26.1914 114.864 26.4792 115.082 26.7306L115.075 26.7251C115.485 27.0647 115.857 27.4409 116.177 27.8682L116.17 27.8606C116.328 27.9887 116.421 28.1815 116.602 28.2856C117.278 29.0399 117.955 29.7952 118.632 30.5495C119.119 31.1412 119.753 31.6026 120.15 32.2734C120.258 32.4038 120.367 32.5332 120.476 32.6636C120.618 32.7904 120.752 32.9255 120.841 33.0959L120.823 33.1126C120.995 33.2176 121.116 33.3769 121.257 33.5164C121.35 33.6094 121.444 33.7034 121.537 33.7975C121.714 33.9578 121.826 34.1636 121.935 34.3706C122.171 34.4713 122.173 34.7614 122.36 34.9059L122.37 34.9188C122.603 35.1502 122.861 35.3586 123.028 35.6484L123.023 35.643C123.177 35.7306 123.183 35.9262 123.31 36.0335C123.539 36.1013 123.588 36.339 123.736 36.4839C123.846 36.6494 123.973 36.8003 124.12 36.9346L124.105 36.9259C124.326 37.1379 124.497 37.3884 124.67 37.6379C124.728 37.7238 124.785 37.8098 124.843 37.8958C124.991 38.0163 125.119 38.1534 125.225 38.3114C125.37 38.5774 125.464 38.8807 125.768 39.0262C125.947 39.2683 126.15 39.4939 126.305 39.7536L126.298 39.7461C126.466 39.8265 126.462 40.0368 126.599 40.1401L126.606 40.1498C126.758 40.2799 126.881 40.4339 126.991 40.5994L126.984 40.5919C127.145 40.6892 127.167 40.8776 127.268 41.0143L127.264 41.01C127.538 41.3525 127.854 41.6597 128.077 42.0417C128.069 42.0788 128.079 42.1098 128.108 42.1347C128.347 42.4458 128.602 42.7466 128.785 43.0972L128.798 43.1123C128.936 43.2443 129.08 43.37 129.185 43.5322C129.222 43.586 129.259 43.6408 129.295 43.6946C129.295 43.9198 129.385 44.087 129.6 44.1779C129.703 44.287 129.78 44.4158 129.864 44.5383L129.863 44.5362C130.004 44.6364 130.015 44.8256 130.139 44.9361C130.186 44.9901 130.234 45.0451 130.281 45.099C130.553 45.3969 130.733 45.758 130.956 46.088C131.094 46.1977 131.117 46.3819 131.229 46.5092C131.592 46.8236 131.803 47.2468 132.04 47.6493L132.036 47.645C132.186 47.7517 132.219 47.9318 132.309 48.0746L132.304 48.0703C132.493 48.235 132.583 48.466 132.712 48.6712C132.808 48.7971 132.904 48.9231 133 49.049C133.225 49.4715 133.571 49.8132 133.798 50.2325C133.784 50.2641 133.79 50.2929 133.814 50.3177C133.968 50.5074 134.132 50.6908 134.208 50.9311C134.305 51.056 134.402 51.1809 134.498 51.3048C134.678 51.5044 134.684 51.8073 134.906 51.9821C134.992 52.1324 135.078 52.2815 135.164 52.4317C135.379 52.6235 135.392 52.9339 135.581 53.1411L135.579 53.139C135.722 53.2402 135.735 53.4295 135.856 53.5453C135.897 53.596 135.937 53.6466 135.977 53.6972C136.137 53.854 136.115 54.1022 136.26 54.2662C136.552 54.5921 136.726 54.9924 136.942 55.3669C136.983 55.4217 137.024 55.4766 137.066 55.5315C137.27 55.6572 137.217 55.9198 137.355 56.0804L137.36 56.088C137.572 56.2276 137.639 56.4635 137.747 56.6725L137.742 56.6629C137.914 56.8029 137.912 57.0345 138.027 57.2043C138.07 57.256 138.114 57.3078 138.156 57.3606C138.406 57.7718 138.594 58.2169 138.839 58.6312C138.852 58.6771 138.865 58.723 138.877 58.7679C139.238 59.0195 139.313 59.4425 139.503 59.7974C139.492 59.8366 139.502 59.8697 139.533 59.8946C139.705 60.1058 139.821 60.3458 139.926 60.5941L139.928 60.5962C140.058 60.7153 140.091 60.8912 140.191 61.0278L140.189 61.0246C140.409 61.2186 140.399 61.5371 140.585 61.7485L140.577 61.7345C140.756 61.9618 140.834 62.2447 140.988 62.4842C140.972 62.5158 140.976 62.5435 141 62.5683C141.196 62.7014 141.15 62.9566 141.281 63.1235C141.468 63.3371 141.501 63.6308 141.68 63.8432C141.672 63.8919 141.683 63.9357 141.712 63.9744C141.872 64.2385 142.08 64.4737 142.187 64.7687C142.226 64.9712 142.222 65.1932 142.447 65.3054C142.631 65.4839 142.608 65.7597 142.757 65.9535L142.754 65.9471C142.902 66.1111 142.901 66.3448 143.022 66.5211L143.015 66.5157C143.289 66.7297 143.241 67.1028 143.433 67.3568C143.628 67.5705 143.705 67.8491 143.825 68.1072C143.837 68.1818 143.849 68.2574 143.861 68.333C143.974 68.4571 144.006 68.6287 144.111 68.757C144.352 68.9895 144.329 69.346 144.509 69.6084L144.505 69.6041C144.7 69.8688 144.815 70.1703 144.905 70.4821C144.99 70.6588 145.074 70.8345 145.16 71.0102C145.331 71.2129 145.321 71.491 145.457 71.7069C145.511 71.847 145.566 71.9871 145.621 72.1261C145.721 72.2596 145.769 72.4198 145.85 72.5625L145.844 72.5581C146.145 72.814 146.089 73.222 146.262 73.5331C146.501 73.7731 146.492 74.1266 146.657 74.4004C146.672 74.4845 146.685 74.5698 146.699 74.6539C146.796 74.7884 146.841 74.9485 146.925 75.0891L146.919 75.0848C147.215 75.3491 147.174 75.7521 147.331 76.0745C147.318 76.121 147.327 76.1626 147.358 76.1993C147.507 76.4366 147.609 76.6965 147.723 76.9513C147.706 76.985 147.71 77.0148 147.735 77.0418C147.924 77.1875 147.825 77.4651 147.999 77.6168L147.995 77.6083C148.234 77.946 148.24 78.3678 148.402 78.7339L148.399 78.7296C148.617 78.9055 148.513 79.2117 148.675 79.4089C148.722 79.5553 148.767 79.7016 148.814 79.8479C148.941 79.9829 148.97 80.1672 149.06 80.3207C149.069 80.3973 149.078 80.474 149.088 80.5495C149.333 80.8459 149.274 81.2528 149.462 81.5705L149.46 81.6278C149.333 81.7956 149.201 81.7763 149.064 81.64C148.905 81.4025 148.61 81.3783 148.4 81.2216C147.917 80.8659 147.418 80.5343 146.986 80.1135C146.964 80.0792 146.933 80.0669 146.893 80.0769C146.661 79.9857 146.475 79.8284 146.302 79.6523L146.306 79.6577C146.17 79.5576 145.988 79.5204 145.888 79.3689L145.903 79.3564C145.773 79.2437 145.593 79.2055 145.472 79.0802C145.218 78.9865 145.123 78.6471 144.806 78.6522C144.573 78.4973 144.315 78.3823 144.097 78.2054L144.112 78.2141C143.956 78.0808 143.746 78.0389 143.59 77.9076C143.508 77.784 143.432 77.6552 143.259 77.6458C143.169 77.6018 143.08 77.5567 142.989 77.5126C142.733 77.4157 142.499 77.281 142.289 77.1042C142.262 77.0719 142.227 77.0606 142.186 77.0705C142.037 77.0201 141.925 76.913 141.799 76.8269C141.596 76.6948 141.435 76.4796 141.155 76.5002C141.058 76.4879 140.978 76.4408 140.905 76.379C140.868 76.3571 140.829 76.349 140.786 76.3557C140.587 76.1547 140.281 76.1408 140.074 75.9524C140.042 75.921 140.004 75.9097 139.96 75.9217C139.764 75.8227 139.534 75.8145 139.346 75.6933C139.097 75.5073 138.816 75.3728 138.547 75.2205C138.458 75.2136 138.371 75.2068 138.284 75.1989C138.026 75.0149 137.68 75.0089 137.44 74.7891C137.361 74.777 137.281 74.765 137.201 74.753C137.058 74.6475 136.876 74.6156 136.739 74.5007L136.753 74.4669C136.524 74.3344 136.281 74.2515 136.012 74.2511C135.799 74.1688 135.543 74.2058 135.36 74.0284L135.367 74.0317C134.965 73.8622 134.52 73.8374 134.121 73.6605C133.935 73.4374 133.611 73.5072 133.407 73.322L133.024 73.2813C132.577 73.0536 132.048 73.1018 131.606 72.8604C131.481 72.8518 131.356 72.8444 131.232 72.8358C130.645 72.5728 129.953 72.7371 129.386 72.3873L129.39 72.3937C128.934 72.2413 128.427 72.3547 127.987 72.125C127.85 72.1067 127.714 72.0884 127.578 72.0711C127.091 71.8215 126.549 72.016 126.047 71.883C123.017 71.7006 119.987 71.5894 116.955 71.7618C116.441 71.8049 115.913 71.6385 115.412 71.8624L115.422 71.8977C114.923 72.1099 114.375 71.9825 113.866 72.1234L113.87 72.116C113.243 72.4153 112.533 72.2903 111.89 72.5054C111.804 72.5113 111.72 72.5162 111.635 72.5222C111.328 72.7303 110.947 72.6302 110.622 72.7605L109.951 72.9156C109.843 73.004 109.716 73.0316 109.581 73.0292C109.35 73.0369 109.121 73.0446 108.955 73.2403C108.587 73.3879 108.184 73.4064 107.814 73.5476C107.776 73.5278 107.739 73.5315 107.705 73.5574C107.347 73.7488 106.959 73.8535 106.568 73.9508C106.523 73.9405 106.481 73.9461 106.44 73.9688C106.271 74.1156 106.03 74.088 105.852 74.2124C105.81 74.1968 105.772 74.2046 105.737 74.2327C105.479 74.4439 105.14 74.4645 104.853 74.6072C104.773 74.6185 104.693 74.6309 104.613 74.6423C104.166 74.9171 103.672 75.0837 103.191 75.2804L103.2 75.2752C102.944 75.5066 102.54 75.4124 102.301 75.6802C102.228 75.6927 102.153 75.7052 102.079 75.7188C101.948 75.8217 101.784 75.8645 101.645 75.9524L101.649 75.9472C101.428 76.2099 101.06 76.1716 100.801 76.3573L100.805 76.3542C100.665 76.5546 100.415 76.5248 100.226 76.6245C100.139 76.6761 100.051 76.7277 99.9653 76.7804C99.8429 76.9004 99.6709 76.9367 99.5339 77.0331L99.5393 77.0311C99.299 77.2532 98.955 77.2631 98.6931 77.4402C98.4769 77.6297 98.1967 77.7003 97.9463 77.8308C97.9114 77.8185 97.8793 77.8243 97.8512 77.8494C97.7223 77.9788 97.553 78.0354 97.389 78.1016C97.3499 78.0849 97.3157 78.0928 97.2874 78.1242C97.0722 78.3149 96.7674 78.3329 96.5429 78.5053C96.5059 78.4919 96.4717 78.4977 96.4415 78.5227C95.954 78.8169 95.3918 78.9378 94.8819 79.1786L94.8894 79.1734C94.5738 79.3825 94.1604 79.336 93.854 79.5686L93.6288 79.5976C93.524 79.686 93.3989 79.7157 93.2647 79.7155C92.9436 79.7535 92.6641 79.9048 92.3795 80.0421C92.1608 80.1902 91.884 80.1302 91.6542 80.2409L91.6596 80.2378C91.4596 80.4053 91.2005 80.369 90.9714 80.4383C90.6266 80.4301 90.2915 80.4721 89.9739 80.6153C89.8864 80.6254 89.7978 80.6356 89.7103 80.6457C89.4481 80.8441 89.0557 80.696 88.8251 80.9766C88.2268 81.1532 87.5874 81.0666 86.993 81.2655C86.8203 81.2731 86.6477 81.2797 86.4741 81.2873C85.5475 81.5452 84.5847 81.4976 83.6423 81.6289L80.8806 81.6148C80.5998 81.7809 80.3228 81.7283 80.0472 81.6003C79.2683 81.5739 78.4893 81.5487 77.7104 81.5224C77.3429 81.3482 76.9183 81.5787 76.5569 81.361L76.5664 81.3686C76.0167 81.204 75.4089 81.3771 74.8839 81.0769C74.7541 81.0683 74.6254 81.0597 74.4957 81.0511C73.8032 80.834 73.0502 80.908 72.3762 80.6031C72.3415 80.5791 72.3054 80.5753 72.2678 80.5937C72.0545 80.4307 71.7539 80.5083 71.544 80.3347C71.4165 80.3208 71.289 80.308 71.1614 80.294C70.7616 80.2053 70.3762 80.0785 70.0144 79.8853C69.9326 79.8743 69.8508 79.8633 69.769 79.8523C69.151 79.6366 68.505 79.4978 67.9317 79.1618C67.8521 79.1476 67.7725 79.1324 67.6929 79.1172C67.369 78.9448 66.9919 78.9 66.6846 78.6907L66.6878 78.6929C66.3778 78.5175 65.9716 78.5487 65.7192 78.2479L65.7234 78.2533C65.5009 78.1273 65.2195 78.1447 65.0182 77.9649C64.9963 77.939 64.9698 77.9343 64.9397 77.9486C64.7019 77.7873 64.3959 77.7501 64.19 77.533L64.1931 77.5352C64.064 77.4288 63.8912 77.3897 63.7741 77.2655C63.7448 77.2331 63.7099 77.224 63.6692 77.2371C63.4307 77.1735 63.2165 77.0624 63.0298 76.902C62.8964 76.735 62.7368 76.6122 62.5123 76.5977C62.3039 76.5834 62.2522 76.3764 62.1145 76.2742C61.9463 76.2097 61.7792 76.1451 61.6121 76.0806C61.3707 76.0031 61.1971 75.8259 61.0081 75.6728C60.9852 75.6448 60.9576 75.6369 60.9244 75.6501C60.5607 75.443 60.2471 75.1688 59.9172 74.9177C59.8817 74.8767 59.8462 74.8368 59.8107 74.7969C59.6819 74.7319 59.5133 74.7534 59.4166 74.62C59.3203 74.4665 59.2032 74.3412 59.0165 74.3018C58.7772 74.1702 58.5834 73.9841 58.393 73.7928C58.2658 73.6992 58.1386 73.6067 58.0103 73.5131C57.7102 73.3836 57.5025 73.1452 57.2969 72.9058C57.1926 72.784 57.0882 72.6632 56.9839 72.5414C56.5706 72.5512 56.4007 72.2232 56.1827 71.9634C56.011 71.8552 55.8805 71.7085 55.7673 71.544L55.7642 71.5407C55.5248 71.3496 55.2821 71.1627 55.0969 70.9141C55.0613 70.8816 55.0267 70.8491 54.9911 70.8156C54.8567 70.6496 54.5988 70.5984 54.5521 70.3501C54.4417 70.0274 54.1234 69.9018 53.9069 69.6792C53.6589 69.489 53.478 69.2394 53.2993 68.9888L53.2982 68.9867C53.1342 68.868 52.9799 68.741 52.8971 68.5484L52.9023 68.5538C52.6282 68.395 52.4827 68.1312 52.3426 67.8642C52.2249 67.7135 52.1062 67.5616 51.9885 67.4108C51.7285 67.3012 51.6369 67.0616 51.5366 66.8294C51.5021 66.7895 51.4688 66.7496 51.4354 66.7097C51.2645 66.6164 51.2566 66.4028 51.1192 66.2846C51.0215 66.148 50.9248 66.0125 50.8271 65.8759C50.6909 65.6897 50.5558 65.5015 50.4401 65.2998C50.2918 65.1941 50.2513 65.015 50.172 64.8596L50.0699 64.7314C49.8677 64.6631 49.8942 64.4277 49.7621 64.3075L49.7673 64.315C49.532 64.1367 49.4956 63.8419 49.3517 63.6088L49.3569 63.6142C49.1409 63.4225 49.1164 63.1204 48.9467 62.9028L48.9529 62.9083C48.6219 62.5403 48.5025 62.0581 48.265 61.6407C48.2754 61.591 48.2644 61.5483 48.2321 61.5105C48.1289 61.3813 48.0914 61.2149 47.9958 61.0815L47.9978 61.0847C47.7821 60.877 47.7631 60.5665 47.6043 60.329C47.623 60.2985 47.6192 60.2698 47.593 60.2449C47.3405 60.0121 47.409 59.6298 47.1897 59.3807C47.2043 59.3374 47.1976 59.2979 47.1694 59.2613C46.8659 58.7802 46.7415 58.2235 46.5205 57.7066L46.5247 57.7141C46.3431 57.5017 46.3576 57.2194 46.2607 56.9766C46.2039 56.7557 46.146 56.5359 46.0892 56.316C45.9851 56.1772 45.9251 56.0168 45.8608 55.8585C45.8516 55.7765 45.8424 55.6956 45.8331 55.6147C45.5836 55.2705 45.6232 54.8346 45.4647 54.4611C45.4834 54.4253 45.4819 54.3892 45.4601 54.3548C45.2451 54.0494 45.3252 53.6694 45.2054 53.3391C45.2872 53.0442 45.0453 52.8137 45.0427 52.5343C44.8826 52.3148 44.9633 52.0209 44.8139 51.7984C44.8089 51.7176 44.8029 51.6357 44.7979 51.5549C44.51 50.9688 44.6709 50.296 44.4311 49.7002C44.4219 49.4334 44.4127 49.1666 44.4036 48.8999C44.1634 48.2626 44.3329 47.5825 44.1952 46.9343L44.2025 46.9408C43.894 46.3767 44.1219 45.7677 44.0598 45.1813C43.9218 43.8756 44.1576 42.5731 44.1676 41.2678C44.1686 41.151 44.2321 41.049 44.3061 40.9579L44.2996 40.9652C44.4621 40.3222 44.3101 39.6344 44.5809 39.0082C44.5975 38.7875 44.6141 38.5669 44.6297 38.3472C44.8902 37.7612 44.753 37.0821 45.0612 36.5075C45.069 36.4248 45.0768 36.3421 45.0836 36.2593C45.2471 36.0455 45.1714 35.7478 45.3401 35.5362C45.3609 35.2593 45.6033 35.0341 45.5298 34.7354C45.6518 34.4571 45.58 34.1159 45.8089 33.8724C45.8167 33.7928 45.8245 33.7144 45.8322 33.6359C46.0133 33.2683 46.0081 32.8348 46.242 32.4863C46.2541 32.4068 46.265 32.3284 46.276 32.2489C46.3797 32.1052 46.4127 31.923 46.53 31.787L46.566 31.8014C46.6816 31.5836 46.776 31.359 46.773 31.105C46.7928 30.946 46.8623 30.8102 46.9624 30.6866C46.9765 30.6104 46.9917 30.5331 47.0069 30.4558C47.1567 30.1684 47.1809 29.8215 47.4279 29.5804C47.5657 29.3683 47.543 29.0874 47.7158 28.8875C47.7439 28.8636 47.7508 28.835 47.7354 28.8018C47.9359 28.5366 47.958 28.1854 48.1681 27.9245L48.1616 27.9329C48.3492 27.677 48.3268 27.3101 48.601 27.0993L48.5956 27.1045C48.6843 26.9616 48.7414 26.8011 48.847 26.668L48.8797 26.6835C49.0364 26.5545 49.0057 26.3617 49.0512 26.1936C49.1076 26.014 49.1946 25.8509 49.3174 25.7085C49.4636 25.4476 49.6108 25.1868 49.758 24.927C49.8206 24.7581 49.8926 24.5958 50.0227 24.4652C50.1819 24.1887 50.203 23.8353 50.5096 23.6526C50.9912 23.0895 51.4518 22.5059 52.0454 22.0488C52.1362 21.8486 52.358 21.7685 52.4718 21.5899L52.4631 21.6004C52.9089 21.2544 53.2503 20.7909 53.7399 20.4966L53.7366 20.5008C53.9394 20.2271 54.1642 19.9761 54.4747 19.819C54.8682 19.7217 55.0571 19.3904 55.292 19.1109C55.4495 18.9925 55.5684 18.83 55.7427 18.731L55.733 18.7383C56.0177 18.4671 56.2879 18.1765 56.6684 18.0323C56.8221 17.8894 56.9747 17.7465 57.1284 17.6047C57.3214 17.5284 57.461 17.4002 57.5263 17.1995C57.6312 17.1057 57.7496 17.0303 57.8701 16.958L57.8615 16.9653C57.9529 16.7906 58.144 16.7652 58.2935 16.6775C58.4263 16.5736 58.559 16.4708 58.6918 16.3668C58.9711 15.9819 59.3496 15.7091 59.7406 15.4514C59.9911 15.4982 59.9536 15.2034 60.1113 15.1402C60.2708 15.0304 60.3928 14.8732 60.5606 14.772L60.552 14.7804C60.6412 14.6099 60.8332 14.5898 60.9723 14.4924L60.9679 14.4976C61.3122 14.2306 61.592 13.8807 61.9894 13.6794C62.2229 13.7271 62.2462 13.4895 62.3766 13.3962C62.664 13.1579 62.9192 12.8766 63.2742 12.7288C63.3529 12.6707 63.4306 12.6115 63.5094 12.5523C63.7008 12.322 63.9463 12.1626 64.2138 12.0313C64.2614 11.9876 64.3101 11.9438 64.3587 11.899C64.5351 11.7406 64.7332 11.6134 64.9386 11.4969L64.9343 11.5021C65.0201 11.3422 65.2266 11.3436 65.3313 11.2063L65.341 11.198C65.4735 11.0484 65.6248 10.9225 65.7959 10.8192L65.783 10.8265C66.1327 10.6127 66.4493 10.3484 66.8033 10.14C66.9339 10.0381 67.0635 9.93523 67.1941 9.83235C67.4034 9.73508 67.5473 9.54107 67.7608 9.44918L67.7576 9.45125C67.9225 9.27567 68.158 9.20222 68.3385 9.05028L68.332 9.05654C68.4381 8.8948 68.6188 8.85333 68.7809 8.77968C69.0039 8.62954 69.2269 8.4794 69.451 8.32927C69.5719 8.17523 69.7397 8.07723 69.8929 7.95987L69.8854 7.96611C70.228 7.73732 70.5571 7.48812 70.9183 7.28833L70.9661 7.29341L71.006 7.26649C71.1813 7.10596 71.4116 7.02499 71.5921 6.87198C71.6389 6.87705 71.6785 6.86393 71.7121 6.83158C71.888 6.57546 72.1605 6.45486 72.4268 6.32566L72.4225 6.33089C72.6717 6.14403 72.8877 5.91091 73.1878 5.79716L73.2313 5.80217L73.2669 5.7773C73.379 5.64116 73.5625 5.61673 73.6922 5.50746C73.8729 5.34277 74.0941 5.23827 74.3038 5.11659C74.3409 5.12679 74.3719 5.11777 74.3969 5.08846C74.5857 4.94941 74.7745 4.81036 74.9829 4.70032C75.2352 4.76739 75.24 4.49023 75.3862 4.41098C75.5907 4.22653 75.8902 4.20837 76.0874 4.01317C76.21 3.88252 76.3853 3.84521 76.5253 3.75098L76.521 3.75516C76.71 3.53856 76.9683 3.44108 77.2256 3.34147C77.6032 3.1186 77.9572 2.84965 78.3628 2.66975L78.3584 2.67499C78.7353 2.43405 79.0915 2.15876 79.5159 1.99832C79.7368 1.85026 80.055 1.8558 80.1857 1.56915C80.4112 1.39674 80.6852 1.31654 80.9334 1.18808C80.9726 1.19938 81.0058 1.18934 81.0319 1.15793C81.2425 0.986325 81.4841 0.870495 81.7319 0.765404C81.9207 0.625283 82.107 0.626406 82.2953 0.758214C82.437 0.813797 82.5787 0.869374 82.7204 0.924958C82.8365 1.04489 83.017 1.0714 83.1254 1.20289L83.1696 1.23233L83.2219 1.22793C83.6709 1.43014 84.088 1.68916 84.5116 1.93766C84.563 1.98317 84.6144 2.02868 84.6658 2.07419C85.2257 2.38774 85.7767 2.71707 86.306 3.08001C86.352 3.12649 86.398 3.17296 86.444 3.22051C86.5946 3.37822 86.8506 3.35081 86.9891 3.53061L86.9786 3.52405C87.1885 3.63393 87.4333 3.69875 87.5462 3.94078L87.5441 3.93862C87.7275 4.04698 87.9582 4.06693 88.1053 4.2405C88.1482 4.28268 88.1911 4.32486 88.234 4.36597C88.3631 4.47338 88.536 4.51357 88.6541 4.63884C89.0097 4.88617 89.3641 5.13453 89.7197 5.38185C89.9467 5.55045 90.233 5.61599 90.4502 5.80247C90.5698 5.90228 90.6884 6.00314 90.8069 6.10293C90.9947 6.14125 91.1159 6.27189 91.235 6.40568C91.3087 6.5748 91.4215 6.69786 91.6137 6.7267C91.9353 6.72274 92.0508 7.00306 92.2425 7.17848C92.2859 7.19517 92.3293 7.21186 92.3726 7.22961C92.5609 7.36142 92.808 7.41565 92.9319 7.63557C92.9516 7.66884 92.9812 7.68104 93.0186 7.67319C93.3759 7.87806 93.6754 8.16583 94.0372 8.36333C94.1674 8.46333 94.2977 8.56438 94.428 8.66438C94.6367 8.78486 94.8334 8.92001 95.0029 9.09397C95.0521 9.13839 95.1025 9.18175 95.1518 9.22509C95.2624 9.35131 95.4624 9.36434 95.5425 9.52933L95.5352 9.52283C95.7026 9.69252 95.9824 9.70588 96.105 9.9364C96.2831 9.98199 96.4317 10.0696 96.5344 10.2254C96.7074 10.3771 96.8956 10.5132 97.0621 10.6733L97.0494 10.6667C97.3753 10.9071 97.6957 11.1559 98.0271 11.3869L98.0144 11.3803C98.1818 11.4894 98.3296 11.6205 98.4557 11.7757L98.4652 11.7844C98.5671 11.9221 98.7671 11.933 98.857 12.0865L98.8528 12.0832C99.0454 12.213 99.2358 12.3459 99.4131 12.4956C99.4349 12.5247 99.4635 12.5347 99.4977 12.5257C99.8244 12.6578 100.006 12.9531 100.24 13.1877C100.333 13.2456 100.426 13.3035 100.52 13.3604C100.633 13.4856 100.845 13.4914 100.908 13.6773L100.899 13.6687C101.078 13.7653 101.189 13.9372 101.342 14.063C101.47 14.1651 101.598 14.2672 101.726 14.3693C102.134 14.5591 102.351 14.9718 102.72 15.2088C102.84 15.3309 103.034 15.3513 103.124 15.5111L103.118 15.5057C103.266 15.6315 103.431 15.7364 103.545 15.8977C103.667 16.0071 103.79 16.1154 103.911 16.2238C104.303 16.4335 104.586 16.7741 104.921 17.0508C105.066 17.1957 105.21 17.3416 105.354 17.4864C105.458 17.6168 105.661 17.6256 105.733 17.7936L105.726 17.7861C105.844 17.8752 105.968 17.9549 106.084 18.0451C106.175 18.2103 106.284 18.3599 106.438 18.4719C106.7 18.5275 106.826 18.7581 107.014 18.91C107.277 19.1504 107.541 19.3919 107.802 19.6355L107.795 19.63C107.947 19.7495 108.068 19.9025 108.223 20.0188C108.327 20.1226 108.431 20.2264 108.535 20.3302C108.668 20.4504 108.792 20.579 108.909 20.7138C109.041 20.8244 109.173 20.9362 109.304 21.0468Z" fill="url(#paint2_linear)"/>
<defs>
<linearGradient id="paint0_linear" x1="157.439" y1="159.989" x2="158.813" y2="81.0579" gradientUnits="userSpaceOnUse">
<stop stop-color="#FF943B"/>
<stop offset="1" stop-color="#FFBC30"/>
</linearGradient>
<linearGradient id="paint1_linear" x1="91.0044" y1="151.865" x2="93.7699" y2="-6.9403" gradientUnits="userSpaceOnUse">
<stop stop-color="#6CBE02"/>
<stop offset="1" stop-color="#11E6ED"/>
</linearGradient>
<linearGradient id="paint2_linear" x1="16.6821" y1="68.5453" x2="101.015" y2="138.085" gradientUnits="userSpaceOnUse">
<stop stop-color="#1FC4B3"/>
<stop offset="1" stop-color="#44F6E4"/>
</linearGradient>
</defs>
</svg>
