<svg width="150" height="80" viewBox="0 0 150 80" fill="none" xmlns="http://www.w3.org/2000/svg">
<g clip-path="url(#clip0)">
<path d="M8.91795 50.5178H10.7709L15.6339 63.5309C15.8734 64.1858 16.1129 64.6211 16.3524 64.8368C16.5994 65.0455 16.9289 65.1493 17.3409 65.1493H17.5879V66.0869H12.0064V65.1493C12.1864 65.1344 12.3619 65.1269 12.5339 65.1269C12.8939 65.1269 13.1289 65.0897 13.2414 65.0156C13.4589 64.874 13.5674 64.6956 13.5674 64.48C13.5674 64.3235 13.4624 63.9404 13.2524 63.3302L12.2194 60.317H6.53695L5.32395 63.6874C5.19695 64.0373 5.13345 64.2787 5.13345 64.4129C5.13345 64.5615 5.17095 64.6917 5.24545 64.8035C5.32795 64.9153 5.43645 65.0007 5.57145 65.0604C5.70645 65.112 5.92295 65.1384 6.22245 65.1384C6.42495 65.1384 6.58945 65.1419 6.71695 65.1493V66.0869H2.03345V65.1493C2.46795 65.1493 2.77845 65.1086 2.96595 65.0266C3.16045 64.9376 3.32895 64.8 3.47095 64.6137C3.61345 64.4204 3.80095 64.0184 4.03245 63.4082L8.91745 50.5178H8.91795ZM6.95295 59.2233H11.7929L9.36695 52.5267L6.95245 59.2233H6.95295ZM25.4934 52.5267L21.4504 63.6874C21.3234 64.0373 21.2599 64.2787 21.2599 64.4129C21.2599 64.6137 21.3199 64.7776 21.4394 64.9038C21.5669 65.0231 21.6829 65.0897 21.7874 65.1046C21.8924 65.1195 22.2444 65.1344 22.8434 65.1493V66.0869H18.1599V65.1493C18.7739 65.1493 19.1899 65.0489 19.4069 64.8482C19.6239 64.64 19.8744 64.16 20.1589 63.4082L25.0439 50.5178H26.8974L31.7604 63.5309C31.9849 64.1411 32.2134 64.5655 32.4454 64.8035C32.6849 65.034 33.0219 65.1493 33.4559 65.1493H33.7144V66.0869H28.1329V65.1493C28.2899 65.1344 28.5259 65.1269 28.8404 65.1269C29.4094 65.1195 29.6939 64.9038 29.6939 64.48C29.6939 64.2937 29.5889 63.9106 29.3789 63.3302L25.4939 52.5267H25.4934ZM35.2639 66.0869V65.1493H35.6339C36.3304 65.1493 36.7689 65.0604 36.9484 64.8815C37.1354 64.6956 37.2289 64.2902 37.2289 63.6651V53.0176C37.2289 52.3707 37.1354 51.9498 36.9484 51.7565C36.7609 51.5632 36.3234 51.4663 35.6344 51.4663H35.2634V50.5178H41.3284V51.4663H40.7889C40.1899 51.4663 39.8009 51.5707 39.6209 51.7789C39.4489 51.9796 39.3629 52.4447 39.3629 53.1742V57.1583H42.2264C43.7989 57.1583 44.9404 57.2735 45.6514 57.5046C46.3704 57.7351 47.0109 58.2112 47.5724 58.9332C48.1339 59.6472 48.4144 60.551 48.4144 61.6452C48.4144 62.6792 48.1074 63.5573 47.4939 64.2787C46.8874 64.9933 46.2059 65.4733 45.4499 65.7187C44.7009 65.9642 43.3684 66.0869 41.4514 66.0869H35.2634H35.2639ZM39.3629 58.3528V63.6318C39.3629 64.1302 39.3854 64.4387 39.4304 64.558C39.4754 64.6693 39.5724 64.7513 39.7224 64.8035C39.8719 64.8482 40.1789 64.8705 40.6429 64.8705H41.3279C42.6829 64.8705 43.6229 64.7886 44.1469 64.6251C44.6709 64.4611 45.1169 64.1262 45.4834 63.6204C45.8579 63.1145 46.0449 62.4636 46.0449 61.6671C46.0449 60.8487 45.8464 60.1645 45.4499 59.6139C45.0599 59.0559 44.5999 58.7061 44.0684 58.5645C43.5369 58.4233 42.7734 58.3528 41.7774 58.3528H39.3624H39.3629ZM50.1999 50.5178H61.1829L62.6319 54.6027L61.6549 54.9709C61.0934 53.676 60.4829 52.8169 59.8244 52.3925C59.1654 51.9687 58.0874 51.7565 56.5899 51.7565H54.2089V63.676C54.2089 64.2787 54.3139 64.6733 54.5234 64.8591C54.7329 65.0455 55.1409 65.1384 55.7474 65.1384H56.1629V66.0869H50.1999V65.1384H50.5814C51.2179 65.1384 51.6299 65.0455 51.8169 64.8591C52.0114 64.6658 52.1089 64.2305 52.1089 63.5533V52.9729C52.1089 52.3036 52.0039 51.8867 51.7944 51.7232C51.5924 51.5518 51.2369 51.4663 50.7274 51.4663H50.1999V50.5178ZM69.6729 50.5178H71.5259L76.3889 63.5309C76.6284 64.1858 76.8679 64.6211 77.1074 64.8368C77.3544 65.0455 77.6839 65.1493 78.0959 65.1493H78.3429V66.0869H72.7614V65.1493C72.9409 65.1344 73.1169 65.1269 73.2889 65.1269C73.6484 65.1269 73.8844 65.0897 73.9964 65.0156C74.2139 64.874 74.3224 64.6956 74.3224 64.48C74.3224 64.3235 74.2174 63.9404 74.0079 63.3302L72.9749 60.317H67.2919L66.0794 63.6874C65.9519 64.0373 65.8884 64.2787 65.8884 64.4129C65.8884 64.5615 65.9259 64.6917 66.0004 64.8035C66.0829 64.9153 66.1914 65.0007 66.3264 65.0604C66.4609 65.112 66.6779 65.1384 66.9774 65.1384C67.1799 65.1384 67.3444 65.1419 67.4719 65.1493V66.0869H62.7884V65.1493C63.2229 65.1493 63.5334 65.1086 63.7209 65.0266C63.9213 64.933 64.0949 64.791 64.2259 64.6137C64.3684 64.4204 64.5554 64.0184 64.7879 63.4082L69.6729 50.5178ZM67.7074 59.2233H72.5479L70.1219 52.5267L67.7074 59.2233ZM79.9594 50.5178H86.0014V51.4663H85.5859C85.1069 51.4663 84.7624 51.5111 84.5529 51.6005C84.3509 51.6894 84.2084 51.846 84.1259 52.0691C84.0589 52.2325 84.0249 52.5789 84.0249 53.1071V57.4484H92.1444V53.2189C92.1444 52.646 92.1259 52.2996 92.0884 52.1809C92.0284 51.9429 91.8974 51.764 91.6954 51.6452C91.5009 51.526 91.2014 51.4663 90.7969 51.4663H90.1794V50.5178H96.1764V51.4663H95.6374C95.2179 51.4663 94.9184 51.515 94.7389 51.6114C94.5752 51.6919 94.4444 51.826 94.3684 51.9911C94.3009 52.1471 94.2674 52.4894 94.2674 53.0176V63.6204C94.2674 64.2082 94.3044 64.5838 94.3794 64.7478C94.4544 64.9038 94.6039 65.0156 94.8289 65.0827C94.9634 65.1269 95.4129 65.1493 96.1764 65.1493V66.0869H90.1794V65.1493H90.6174C91.1714 65.1493 91.5384 65.112 91.7179 65.038C91.9049 64.9635 92.0249 64.8442 92.0774 64.6807C92.1224 64.554 92.1444 64.156 92.1444 63.4867V58.6539H84.0249V63.6204C84.0249 64.2082 84.0624 64.5838 84.1374 64.7478C84.2199 64.9113 84.3729 65.0231 84.5979 65.0827C84.7624 65.1269 85.2304 65.1493 86.0014 65.1493V66.0869H79.9594V65.1493H80.3414C80.9254 65.1493 81.2884 65.1195 81.4309 65.0604C81.5804 64.9933 81.6964 64.8705 81.7789 64.6917C81.8689 64.5133 81.9139 64.1973 81.9139 63.7431V53.0176C81.9139 52.5342 81.8724 52.1993 81.7899 52.0134C81.7224 51.8348 81.5903 51.6876 81.4194 51.6005C81.2549 51.5111 80.9779 51.4663 80.5884 51.4663H79.9594V50.5178ZM98.8149 50.5178H104.857V51.4663H104.441C103.783 51.4663 103.356 51.5707 103.161 51.7789C102.974 51.9796 102.88 52.4224 102.88 53.1071V61.9354L111 53.2189C111 52.6385 110.974 52.2624 110.921 52.0914C110.876 51.913 110.753 51.764 110.551 51.6452C110.356 51.526 110.057 51.4663 109.652 51.4663H109.046V50.5178H115.032V51.4663H114.493C113.931 51.4663 113.561 51.5667 113.381 51.7679C113.209 51.9687 113.123 52.3851 113.123 53.0176V63.6204C113.123 64.3274 113.201 64.7587 113.358 64.9153C113.523 65.0638 113.965 65.1384 114.684 65.1384H115.032V66.0869H109.046V65.1384H109.473C110.027 65.1384 110.394 65.1046 110.573 65.038C110.753 64.9709 110.869 64.8631 110.921 64.714C110.974 64.5655 111 64.156 111 63.4867V54.9486L102.88 63.6204C102.88 64.32 102.963 64.7478 103.127 64.9038C103.292 65.0604 103.73 65.1384 104.441 65.1384H104.857V66.0869H98.8149V65.1384H99.1969C99.8634 65.1384 100.29 65.0713 100.477 64.9376C100.672 64.796 100.769 64.398 100.769 63.7431V53.0176C100.769 52.3707 100.679 51.9498 100.499 51.7565C100.32 51.5632 99.9679 51.4663 99.4439 51.4663H98.8149V50.5178ZM117.738 50.5178H123.78V51.4663H123.353C122.859 51.4663 122.511 51.526 122.309 51.6452C122.106 51.764 121.964 51.9498 121.882 52.2032C121.814 52.3891 121.781 52.6942 121.781 53.118V58.9997L127.666 52.8055C127.973 52.4785 128.152 52.2663 128.205 52.1694C128.265 52.073 128.294 51.9722 128.294 51.8683C128.294 51.7342 128.227 51.6338 128.092 51.5667C127.965 51.5001 127.684 51.4663 127.25 51.4663H126.891V50.5178H132.506V51.4663C132.064 51.4589 131.664 51.5076 131.304 51.6114C130.945 51.7158 130.66 51.846 130.451 52.002C129.994 52.3369 129.668 52.6047 129.474 52.8055L125.273 57.0802L130.069 63.3973C130.503 63.9702 130.848 64.3647 131.102 64.5804C131.357 64.7886 131.619 64.9376 131.888 65.0266C132.158 65.1086 132.577 65.1493 133.146 65.1493V66.0869H126.498V65.1493H126.891C127.332 65.1493 127.594 65.1384 127.677 65.116C127.804 65.0862 127.905 65.0266 127.98 64.9376C128.05 64.8608 128.09 64.7618 128.092 64.6584C128.092 64.4651 127.834 64.0224 127.317 63.3302L123.78 58.5535L121.781 60.6072V63.5871C121.781 64.1004 121.833 64.4502 121.938 64.636C122.043 64.8219 122.204 64.9595 122.421 65.0489C122.593 65.116 123.046 65.1493 123.78 65.1493V66.0869H117.738V65.1493H118.209C118.681 65.1493 119.003 65.1046 119.175 65.0156C119.348 64.9187 119.479 64.7627 119.568 64.5466C119.666 64.3309 119.714 63.9478 119.714 63.3973V53.118C119.714 52.5749 119.669 52.2067 119.58 52.0134C119.49 51.8122 119.359 51.6711 119.187 51.5891C119.014 51.5076 118.647 51.4663 118.086 51.4663H117.738V50.5178ZM140.535 50.5178H142.388L147.251 63.5309C147.491 64.1858 147.73 64.6211 147.97 64.8368C148.217 65.0455 148.546 65.1493 148.958 65.1493H149.205V66.0869H143.624V65.1493C143.803 65.1344 143.979 65.1269 144.151 65.1269C144.511 65.1269 144.747 65.0897 144.859 65.0156C145.076 64.874 145.185 64.6956 145.185 64.48C145.185 64.3235 145.08 63.9404 144.87 63.3302L143.837 60.317H138.154L136.941 63.6874C136.814 64.0373 136.751 64.2787 136.751 64.4129C136.751 64.5615 136.788 64.6917 136.863 64.8035C136.945 64.9153 137.054 65.0007 137.189 65.0604C137.323 65.112 137.54 65.1384 137.84 65.1384C138.042 65.1384 138.207 65.1419 138.334 65.1493V66.0869H133.651V65.1493C134.085 65.1493 134.396 65.1086 134.583 65.0266C134.784 64.933 134.957 64.791 135.088 64.6137C135.231 64.4204 135.418 64.0184 135.65 63.4082L140.535 50.5178ZM138.57 59.2233H143.41L140.984 52.5267L138.57 59.2233Z" fill="#00D9C2"/>
<path d="M100 0H150V49.6894H100V0Z" fill="#09BF00"/>
<path d="M122.051 3.20496H127.288L141.031 39.9821C141.708 41.8325 142.385 43.0628 143.062 43.6725C143.76 44.2609 144.691 44.5555 145.855 44.5555H146.553V47.205H130.779V44.5555C131.275 44.5139 131.773 44.4929 132.271 44.4924C133.286 44.4924 133.953 44.3871 134.27 44.1769C134.884 43.7774 135.191 43.2725 135.191 42.6628C135.191 42.2216 134.894 41.1384 134.302 39.4141L131.382 30.8984H115.323L111.895 40.4238C111.535 41.4122 111.355 42.0954 111.355 42.474C111.355 42.8944 111.461 43.2621 111.673 43.5776C111.909 43.8963 112.227 44.1467 112.593 44.3031C112.974 44.4502 113.587 44.5242 114.434 44.5242C115.005 44.5242 115.471 44.5341 115.83 44.5555V47.205H102.595V44.5555C103.823 44.5555 104.701 44.4397 105.23 44.2087C105.78 43.9563 106.256 43.5672 106.658 43.0415C107.06 42.4949 107.589 41.3595 108.245 39.6353L122.051 3.20496ZM116.497 27.8072H130.176L123.321 8.88247L116.497 27.8072Z" fill="white"/>
<path d="M50 0H100V49.6894H50V0Z" fill="#FF9400"/>
<path d="M57.42 3.20496H74.9075C80.2185 3.20496 83.879 3.54135 85.889 4.21415C88.407 5.01315 90.4805 6.38061 92.1101 8.31452C93.7606 10.2494 94.5856 12.7096 94.5856 15.6954C94.5856 18.2395 93.9615 20.4373 92.713 22.2872C91.2105 24.5163 89.3806 26.1038 87.222 27.0499C85.085 27.9751 81.7106 28.4377 77.0976 28.4377H69.0045V39.7297C69.0045 41.4117 69.0995 42.4735 69.29 42.9153C69.544 43.525 69.893 43.9563 70.3375 44.2087C70.7815 44.4397 71.6811 44.5555 73.0351 44.5555H74.5585V47.205H57.42V44.5555H58.4675C59.927 44.5555 60.9215 44.4397 61.4505 44.2087C61.9795 43.9563 62.3605 43.5776 62.5935 43.0733C62.847 42.5476 62.974 41.5697 62.974 40.1396V10.0497C62.974 8.66185 62.8575 7.73663 62.625 7.27402C62.4135 6.79005 62.043 6.44322 61.514 6.23303C61.0065 6.00148 59.9905 5.8862 58.4675 5.8862H57.42V3.20496ZM69.0045 6.64347V25.0946H75.8281C79.2771 25.0946 81.689 24.7895 83.0645 24.1804C84.461 23.5702 85.6141 22.5187 86.5241 21.0261C87.4341 19.512 87.8885 17.7456 87.8885 15.7267C87.8885 13.519 87.3596 11.679 86.3021 10.2072C85.2441 8.71402 83.805 7.70483 81.9855 7.17912C80.716 6.82135 78.2401 6.64297 74.5585 6.64297H69.0045V6.64347Z" fill="white"/>
<path d="M0 0H50V49.6894H0V0Z" fill="#00D9C2"/>
<path d="M35.8811 3.20498H38.1661L41.5621 16.7677L38.6421 17.6512C36.7801 13.845 34.3046 10.8487 31.2156 8.66188C28.6766 6.83231 25.8621 5.91753 22.7731 5.91753C20.9111 5.91753 19.2396 6.25393 17.7581 6.92672C16.2771 7.57865 15.1666 8.43032 14.4261 9.48175C13.6851 10.5332 13.3151 11.6055 13.3151 12.6991C13.3151 13.6875 13.6006 14.644 14.1721 15.5692C14.7431 16.4944 15.6106 17.3143 16.7746 18.0293C17.9381 18.7235 19.8426 19.4594 22.4876 20.2375L30.7711 22.6659C31.7866 22.9605 33.2571 23.528 35.1826 24.3692C37.1296 25.2104 38.6426 26.1039 39.7211 27.0499C40.8006 27.9752 41.6466 29.1215 42.2606 30.4885C42.8741 31.834 43.1806 33.2954 43.1806 34.8726C43.1806 38.3627 41.6361 41.4226 38.5471 44.0507C35.4791 46.6584 31.5011 47.9618 26.6136 47.9618C24.0956 47.9618 21.8421 47.6045 19.8536 46.8895C17.8641 46.154 15.7166 44.8606 13.4101 43.0102L11.9501 47.205H9.7286L6.7771 31.4027L9.7286 30.8035C10.8076 33.7262 12.2361 36.2077 14.0136 38.247C15.8116 40.2872 17.7901 41.8326 19.9486 42.884C22.1276 43.914 24.3386 44.4293 26.5816 44.4293C29.6286 44.4293 32.2946 43.515 34.5796 41.6855C36.4841 40.1501 37.4361 38.3419 37.4361 36.2604C37.4361 34.3468 36.7486 32.7801 35.3731 31.5608C33.9766 30.3409 31.4801 29.2055 27.8831 28.1541L19.9481 25.8832C15.5051 24.6003 12.3731 22.9605 10.5536 20.9625C8.7341 18.965 7.8241 16.6733 7.8241 14.087C7.8241 12.0681 8.4166 10.2072 9.6016 8.50386C10.7866 6.77964 12.6066 5.33914 15.0606 4.18287C17.5151 3.0261 20.2021 2.44821 23.1221 2.44821C25.5766 2.44821 27.9251 2.86858 30.1681 3.70983C31.7599 4.30135 33.2405 5.15428 34.5481 6.23306L35.8811 3.20498Z" fill="white"/>
<path d="M7.505 69.2124H8.9935V77.0042H7.5045V71.3223L3.489 77.0042H2V69.2124H3.489V74.9014L7.5045 69.2124H7.505ZM19.2395 77.0042H17.75V73.677H13.75V77.0042H12.2535V69.2124H13.7505V72.5898H17.7505V69.2124H19.239V77.0042H19.2395ZM28.85 70.2927H25.9285V77.0042H24.4395V70.2927H21.5745V69.2124H28.85V70.2927ZM34.0095 77.1484C32.8295 77.1484 31.869 76.8025 31.1285 76.1113C30.388 75.4152 30.018 74.486 30.018 73.3243V73.0793C30.018 72.3066 30.1815 71.6174 30.5085 71.0127C30.8266 70.4179 31.3063 69.9238 31.893 69.5866C32.4781 69.244 33.1454 69.0649 33.8245 69.0683C34.9565 69.0683 35.8365 69.4018 36.464 70.0691C37.0915 70.7364 37.4055 71.692 37.4055 72.9357V73.4902H31.5065C31.528 74.2579 31.7775 74.88 32.255 75.3551C32.738 75.8256 33.35 76.0607 34.09 76.0607C34.6155 76.0607 35.061 75.9647 35.426 75.7729C35.7907 75.5807 36.1155 75.3218 36.3835 75.0097L37.293 75.6433C36.563 76.6465 35.469 77.1484 34.0095 77.1484ZM33.8245 70.163C33.2235 70.163 32.7195 70.3598 32.3115 70.7533C31.9035 71.1424 31.6515 71.6895 31.555 72.3956H35.917V72.2947C35.874 71.6174 35.67 71.0942 35.305 70.7245C34.94 70.3503 34.447 70.163 33.8245 70.163ZM47.233 73.1946C47.233 74.3806 46.93 75.3362 46.3235 76.0607C45.7175 76.7856 44.8965 77.1484 43.861 77.1484C42.804 77.1484 41.9725 76.8482 41.366 76.248V80H39.8775V69.2124H41.2375L41.31 70.0765C41.916 69.4043 42.7585 69.0683 43.837 69.0683C44.883 69.0683 45.7095 69.4211 46.3155 70.1267C46.9275 70.8328 47.233 71.8147 47.233 73.0723V73.1946ZM45.745 73.0435C45.745 72.165 45.5355 71.4713 45.117 70.9625C44.6985 70.4532 44.1245 70.1988 43.395 70.1988C42.4935 70.1988 41.8175 70.5565 41.367 71.2721V74.9953C41.812 75.7054 42.4935 76.0607 43.411 76.0607C44.1245 76.0607 44.691 75.8087 45.109 75.3049C45.533 74.796 45.745 74.0423 45.745 73.0435ZM56.988 77.0042H55.4995V73.677H51.4995V77.0042H50.003V69.2124H51.4995V72.5898H55.4995V69.2124H56.988V77.0042ZM63.7415 77.1484C62.561 77.1484 61.601 76.8025 60.8605 76.1113C60.12 75.4152 59.75 74.486 59.75 73.3243V73.0793C59.75 72.3066 59.9135 71.6174 60.2405 71.0127C60.5588 70.4181 61.0384 69.924 61.625 69.5866C62.2101 69.244 62.8774 69.0649 63.5565 69.0683C64.6885 69.0683 65.5685 69.4018 66.196 70.0691C66.8235 70.7364 67.1375 71.692 67.1375 72.9357V73.4902H61.2385C61.26 74.2579 61.5095 74.88 61.987 75.3551C62.47 75.8256 63.0815 76.0607 63.822 76.0607C64.3475 76.0607 64.793 75.9647 65.158 75.7729C65.5226 75.5807 65.8475 75.3217 66.1155 75.0097L67.025 75.6433C66.2955 76.6465 65.201 77.1484 63.7415 77.1484ZM63.5565 70.163C62.9555 70.163 62.451 70.3598 62.0435 70.7533C61.6355 71.1424 61.3835 71.6895 61.287 72.3956H65.649V72.2947C65.606 71.6174 65.402 71.0942 65.037 70.7245C64.6725 70.3503 64.1785 70.163 63.5565 70.163ZM75.9835 70.2927H73.062V77.0042H71.573V70.2927H68.708V69.2124H75.9835V70.2927ZM81.272 73.0937H77.3445V72.0065H81.272V73.0937ZM88.484 75.2398L91.4455 69.2124H93.3045V77.0042H91.8155V71.3367L88.999 77.0042H87.969L85.096 71.2144V77.0042H83.607V69.2124H85.5385L88.484 75.2398ZM101.82 77.0042C101.735 76.8507 101.665 76.5769 101.611 76.1834C100.919 76.8269 100.093 77.1484 99.132 77.1484C98.274 77.1484 97.5685 76.9322 97.0155 76.5004C96.4685 76.0631 96.195 75.5111 96.195 74.8438C96.195 74.0323 96.538 73.4038 97.225 72.957C97.917 72.5059 98.888 72.2803 100.138 72.2803H101.587V71.6681C101.587 71.2025 101.431 70.8328 101.12 70.559C100.809 70.2808 100.35 70.1411 99.744 70.1411C99.2125 70.1411 98.7675 70.2614 98.408 70.5014C98.0485 70.7414 97.869 71.0321 97.869 71.3729H96.372C96.372 70.9839 96.525 70.6092 96.8305 70.2495C97.142 69.8847 97.5605 69.5965 98.086 69.3854C98.617 69.1742 99.1995 69.0683 99.8325 69.0683C100.836 69.0683 101.622 69.2939 102.191 69.7451C102.759 70.1918 103.054 70.8085 103.076 71.5961V75.1821C103.076 75.8977 103.178 76.4666 103.382 76.889V77.0042H101.82ZM99.3495 75.9891C99.8122 75.99 100.268 75.8787 100.678 75.6646C101.096 75.449 101.399 75.1677 101.587 74.8224V73.2234H100.42C98.5955 73.2234 97.6835 73.7014 97.6835 74.6564C97.6835 75.0743 97.8395 75.4008 98.1505 75.6358C98.4615 75.8713 98.8615 75.9891 99.3495 75.9891ZM111.777 70.3141H107.761V77.0042H106.264V69.2124H111.777V70.3141ZM119.19 77.0042C119.104 76.8507 119.034 76.5769 118.981 76.1834C118.289 76.8269 117.462 77.1484 116.502 77.1484C115.644 77.1484 114.938 76.9322 114.385 76.5004C113.838 76.0631 113.565 75.5111 113.565 74.8438C113.565 74.0323 113.908 73.4038 114.595 72.957C115.287 72.5059 116.258 72.2803 117.508 72.2803H118.957V71.6681C118.957 71.2025 118.801 70.8328 118.49 70.559C118.179 70.2808 117.72 70.1411 117.114 70.1411C116.582 70.1411 116.137 70.2614 115.778 70.5014C115.418 70.7414 115.238 71.0321 115.238 71.3729H113.742C113.742 70.9839 113.895 70.6092 114.2 70.2495C114.512 69.8847 114.93 69.5965 115.456 69.3854C115.987 69.1742 116.569 69.0683 117.202 69.0683C118.205 69.0683 118.991 69.2939 119.56 69.7451C120.129 70.1918 120.424 70.8085 120.445 71.5961V75.1821C120.445 75.8977 120.547 76.4666 120.751 76.889V77.0042H119.19ZM116.719 75.9891C117.182 75.99 117.638 75.8787 118.047 75.6646C118.466 75.449 118.769 75.1677 118.957 74.8224V73.2234H117.79C115.965 73.2234 115.053 73.7014 115.053 74.6564C115.053 75.0743 115.209 75.4008 115.52 75.6358C115.831 75.8713 116.231 75.9891 116.719 75.9891ZM128.309 71.3441C128.309 70.9789 128.154 70.6912 127.842 70.48C127.531 70.2639 127.105 70.1556 126.563 70.1556C126.037 70.1556 125.597 70.2783 125.243 70.5233C124.894 70.7677 124.72 71.0559 124.72 71.3874H123.239C123.239 70.7101 123.556 70.1556 124.189 69.7238C124.822 69.2915 125.613 69.0753 126.563 69.0753C127.582 69.0753 128.376 69.2726 128.945 69.6661C129.514 70.0552 129.798 70.6117 129.798 71.3367C129.798 71.6875 129.68 72.009 129.444 72.3016C129.208 72.5948 128.873 72.8274 128.438 73.0003C129.452 73.3074 129.959 73.9126 129.959 74.8149C129.959 75.5305 129.65 76.0969 129.033 76.5148C128.416 76.9322 127.593 77.1409 126.563 77.1409C125.56 77.1409 124.731 76.9228 124.076 76.486C123.427 76.0442 123.102 75.449 123.102 74.6997H124.583C124.583 75.0793 124.771 75.4057 125.146 75.679C125.527 75.9479 126 76.0825 126.563 76.0825C127.132 76.0825 127.59 75.9648 127.939 75.7297C128.288 75.4942 128.462 75.1896 128.462 74.8149C128.462 74.3782 128.315 74.0661 128.019 73.8788C127.73 73.687 127.276 73.5906 126.659 73.5906H125.171V72.4676H126.788C127.802 72.4433 128.309 72.0691 128.309 71.3441ZM138.265 69.2124H139.754V77.0042H138.265V71.3223L134.25 77.0042H132.761V69.2124H134.25V74.9014L138.265 69.2124ZM150 77.0042H148.511V73.677H144.512V77.0042H143.015V69.2124H144.512V72.5898H148.511V69.2124H150V77.0042Z" fill="#666666"/>
</g>
<defs>
<clipPath id="clip0">
<rect width="150" height="80" fill="white"/>
</clipPath>
</defs>
</svg>
