<svg width="36" height="36" viewBox="0 0 36 36" fill="none" xmlns="http://www.w3.org/2000/svg">
<g clip-path="url(#clip0)">
<path d="M35.0712 9.31592L28.0053 0.354452C27.828 0.130993 27.566 0 27.2809 0H8.72614C8.44103 0 8.17905 0.130993 8.00182 0.354452L0.935893 9.31592C0.804899 9.47774 0.73555 9.67808 0.73555 9.88613V35.0753C0.73555 35.5839 1.15165 36 1.66021 36H34.3392C34.8477 36 35.2638 35.5839 35.2638 35.0753V9.88613C35.2715 9.67808 35.2022 9.47774 35.0712 9.31592ZM32.5592 9.11558H18.9282V1.84931H26.834L32.5592 9.11558ZM9.17305 1.84931H17.0789V9.11558H3.44788L9.17305 1.84931ZM2.58487 34.1507V10.9649H33.4145V34.1507H2.58487Z" fill="white"/>
<path d="M22.3879 18.4084L16.1927 24.6035L13.6191 22.0299C13.257 21.6678 12.6713 21.6678 12.3092 22.0299C11.947 22.3921 11.947 22.9777 12.3092 23.3399L15.5378 26.5684C15.715 26.7457 15.9539 26.8381 16.1927 26.8381C16.4316 26.8381 16.6628 26.7457 16.8477 26.5684L23.6902 19.726C24.0523 19.3638 24.0523 18.7782 23.6902 18.4161C23.3357 18.0462 22.7501 18.0462 22.3879 18.4084Z" fill="white"/>
</g>
<defs>
<clipPath id="clip0">
<rect width="36" height="36" fill="white"/>
</clipPath>
</defs>
</svg>
