<svg width="36" height="36" viewBox="0 0 36 36" fill="none" xmlns="http://www.w3.org/2000/svg">
<path d="M18 34.875C14.6624 34.875 11.3998 33.8853 8.62476 32.0311C5.84968 30.1768 3.68677 27.5413 2.40954 24.4578C1.13231 21.3743 0.79813 17.9813 1.44926 14.7079C2.10038 11.4344 3.70757 8.42759 6.06758 6.06758C8.42759 3.70757 11.4344 2.10038 14.7079 1.44926C17.9813 0.79813 21.3743 1.13231 24.4578 2.40954C27.5413 3.68677 30.1768 5.84968 32.0311 8.62476C33.8853 11.3998 34.875 14.6624 34.875 18C34.875 22.4755 33.0971 26.7678 29.9324 29.9324C26.7678 33.0971 22.4755 34.875 18 34.875ZM18 3.37501C15.1075 3.37501 12.2799 4.23275 9.87479 5.83977C7.46972 7.44678 5.5952 9.73089 4.48827 12.4033C3.38134 15.0756 3.09171 18.0162 3.65602 20.8532C4.22033 23.6902 5.61323 26.2961 7.65857 28.3414C9.70391 30.3868 12.3098 31.7797 15.1468 32.344C17.9838 32.9083 20.9244 32.6187 23.5968 31.5117C26.2691 30.4048 28.5532 28.5303 30.1602 26.1252C31.7673 23.7202 32.625 20.8926 32.625 18C32.625 14.1212 31.0842 10.4013 28.3414 7.65857C25.5987 4.91585 21.8788 3.37501 18 3.37501Z" fill="white"/>
<path d="M23.625 19.125H12.375C12.0766 19.125 11.7905 19.0065 11.5795 18.7955C11.3685 18.5845 11.25 18.2984 11.25 18C11.25 17.7016 11.3685 17.4155 11.5795 17.2045C11.7905 16.9935 12.0766 16.875 12.375 16.875H23.625C23.9234 16.875 24.2095 16.9935 24.4205 17.2045C24.6315 17.4155 24.75 17.7016 24.75 18C24.75 18.2984 24.6315 18.5845 24.4205 18.7955C24.2095 19.0065 23.9234 19.125 23.625 19.125Z" fill="white"/>
<path d="M23.625 13.5H12.375C12.0766 13.5 11.7905 13.3815 11.5795 13.1705C11.3685 12.9595 11.25 12.6734 11.25 12.375C11.25 12.0766 11.3685 11.7905 11.5795 11.5795C11.7905 11.3685 12.0766 11.25 12.375 11.25H23.625C23.9234 11.25 24.2095 11.3685 24.4205 11.5795C24.6315 11.7905 24.75 12.0766 24.75 12.375C24.75 12.6734 24.6315 12.9595 24.4205 13.1705C24.2095 13.3815 23.9234 13.5 23.625 13.5Z" fill="white"/>
<path d="M23.625 24.75H12.375C12.0766 24.75 11.7905 24.6315 11.5795 24.4205C11.3685 24.2095 11.25 23.9234 11.25 23.625C11.25 23.3266 11.3685 23.0405 11.5795 22.8295C11.7905 22.6185 12.0766 22.5 12.375 22.5H23.625C23.9234 22.5 24.2095 22.6185 24.4205 22.8295C24.6315 23.0405 24.75 23.3266 24.75 23.625C24.75 23.9234 24.6315 24.2095 24.4205 24.4205C24.2095 24.6315 23.9234 24.75 23.625 24.75Z" fill="white"/>
</svg>
