<svg width="36" height="36" viewBox="0 0 36 36" fill="none" xmlns="http://www.w3.org/2000/svg">
<g clip-path="url(#clip0)">
<path d="M31.1632 6.32653C28.0449 3.20818 23.8969 1.48975 19.4897 1.48975C15.0011 1.48975 10.8013 3.26003 7.66812 6.47468C7.3274 6.82281 7.33481 7.38574 7.68294 7.73387C8.03107 8.07459 8.594 8.06719 8.94213 7.71906C11.742 4.85254 15.4825 3.27484 19.4897 3.27484C27.6152 3.26743 34.2223 9.8745 34.2223 18C34.2223 26.1255 27.6152 32.7326 19.4897 32.7326C11.3642 32.7326 4.75716 26.1255 4.75716 18V17.8148L6.22375 19.2814C6.39412 19.4518 6.62373 19.5407 6.85335 19.5407C7.08297 19.5407 7.30518 19.4518 7.48295 19.2814C7.83108 18.9333 7.83108 18.3704 7.48295 18.0222L4.50532 15.0372C4.15719 14.6891 3.59426 14.6891 3.24613 15.0372L0.261098 18.0222C-0.0870326 18.3704 -0.0870326 18.9333 0.261098 19.2814C0.609228 19.6296 1.17216 19.6296 1.52029 19.2814L2.98688 17.8148V18C2.98688 22.4072 4.70531 26.5551 7.82367 29.6735C10.942 32.7918 15.09 34.5103 19.4971 34.5103C23.9043 34.5103 28.0523 32.7918 31.1706 29.6735C34.289 26.5551 36 22.4072 36 18C36 13.5928 34.2816 9.44489 31.1632 6.32653Z" fill="white"/>
<path d="M24.2154 11.9927L13.2975 22.9033C12.9493 23.2514 12.9493 23.8144 13.2975 24.1625C13.4678 24.3329 13.6974 24.4217 13.9271 24.4217C14.1567 24.4217 14.3789 24.3329 14.5567 24.1625L25.4746 13.2445C25.8227 12.8964 25.8227 12.3335 25.4746 11.9853C25.1265 11.6446 24.5635 11.6446 24.2154 11.9927Z" fill="white"/>
<path d="M21.3563 19.3408C20.1193 20.5777 20.1193 22.5998 21.3563 23.8368C21.9563 24.4368 22.7562 24.7701 23.6081 24.7701C24.4599 24.7701 25.2598 24.4368 25.8598 23.8368C27.0968 22.5998 27.0968 20.5777 25.8598 19.3408C25.2598 18.7408 24.4599 18.4075 23.6081 18.4075C22.7562 18.4075 21.9637 18.7408 21.3563 19.3408ZM24.6006 22.585C24.3339 22.8517 23.9858 22.9924 23.6081 22.9924C23.2303 22.9924 22.8822 22.8443 22.6155 22.585C22.0674 22.0369 22.0674 21.1481 22.6155 20.6C22.8822 20.3333 23.2303 20.1926 23.6081 20.1926C23.9858 20.1926 24.3339 20.3407 24.6006 20.6C25.1487 21.1481 25.1487 22.0369 24.6006 22.585Z" fill="white"/>
<path d="M15.4011 11.2002C14.5493 11.2002 13.7493 11.5335 13.1493 12.1335C12.5494 12.7335 12.216 13.5334 12.216 14.3852C12.216 15.237 12.5494 16.037 13.1493 16.637C13.7493 17.2369 14.5493 17.5702 15.4011 17.5702C16.2529 17.5702 17.0528 17.2369 17.6528 16.637C18.2528 16.037 18.5861 15.237 18.5861 14.3852C18.5861 13.5334 18.2528 12.7335 17.6528 12.1335C17.0454 11.5335 16.2529 11.2002 15.4011 11.2002ZM16.3936 15.3778C16.127 15.6444 15.7788 15.7851 15.4011 15.7851C15.0233 15.7851 14.6752 15.637 14.4085 15.3778C14.1419 15.1111 14.0011 14.763 14.0011 14.3852C14.0011 14.0075 14.1493 13.6593 14.4085 13.3927C14.6752 13.126 15.0233 12.9853 15.4011 12.9853C15.7788 12.9853 16.127 13.1334 16.3936 13.3927C16.6603 13.6593 16.801 14.0075 16.801 14.3852C16.801 14.7556 16.6603 15.1111 16.3936 15.3778Z" fill="white"/>
</g>
<defs>
<clipPath id="clip0">
<rect width="36" height="36" fill="white"/>
</clipPath>
</defs>
</svg>
