<svg width="30" height="30" viewBox="0 0 30 30" fill="none" xmlns="http://www.w3.org/2000/svg">
<path d="M29.7374 28.4701L22.447 21.1796C24.4026 18.9313 25.5866 15.9978 25.5866 12.7916C25.5866 5.73393 19.8461 0 12.7951 0C5.73743 0 0.00351334 5.74058 0.00351334 12.7916C0.00351334 19.8426 5.74408 25.5832 12.7951 25.5832C16.0013 25.5832 18.9348 24.3991 21.1831 22.4435L28.4736 29.7339C28.6465 29.9069 28.8793 30 29.1055 30C29.3316 30 29.5645 29.9135 29.7374 29.7339C30.0833 29.388 30.0833 28.816 29.7374 28.4701ZM1.79287 12.7916C1.79287 6.72506 6.72856 1.79601 12.7884 1.79601C18.8549 1.79601 23.784 6.73171 23.784 12.7916C23.784 18.8514 18.8549 23.7938 12.7884 23.7938C6.72856 23.7938 1.79287 18.8581 1.79287 12.7916Z" fill="white"/>
</svg>
